<svg width="24" height="16" viewBox="0 0 24 16" fill="none" xmlns="http://www.w3.org/2000/svg">
<path d="M24 0.00012207H0V16.0003H24V0.00012207Z" fill="#F0F0F0"/>
<path d="M13.5 0H10.5V6.49997H0V9.49997H10.5V15.9999H13.5V9.49997H24V6.49997H13.5V0Z" fill="#D80027"/>
<path d="M18.4587 10.7826L24.0001 13.8612V10.7826H18.4587Z" fill="#0052B4"/>
<path d="M14.6086 10.7826L24 16V14.5246L17.2643 10.7826H14.6086Z" fill="#0052B4"/>
<path d="M21.4984 15.9999L14.6086 12.1719V15.9999H21.4984Z" fill="#0052B4"/>
<path d="M14.6086 10.7826L24 16V14.5246L17.2643 10.7826H14.6086Z" fill="#F0F0F0"/>
<path d="M14.6086 10.7826L24 16V14.5246L17.2643 10.7826H14.6086Z" fill="#D80027"/>
<path d="M4.23473 10.7825L0 13.1351V10.7825H4.23473Z" fill="#0052B4"/>
<path d="M9.39124 11.4459V15.9999H1.19482L9.39124 11.4459Z" fill="#0052B4"/>
<path d="M6.73561 10.7826L0 14.5246V16L9.39131 10.7826H6.73561Z" fill="#D80027"/>
<path d="M5.54133 5.21736L0 2.13879V5.21736H5.54133Z" fill="#0052B4"/>
<path d="M9.39131 5.21737L0 0V1.47534L6.73561 5.21737H9.39131Z" fill="#0052B4"/>
<path d="M2.50146 0L9.39124 3.828V0H2.50146Z" fill="#0052B4"/>
<path d="M9.39131 5.21737L0 0V1.47534L6.73561 5.21737H9.39131Z" fill="#F0F0F0"/>
<path d="M9.39131 5.21737L0 0V1.47534L6.73561 5.21737H9.39131Z" fill="#D80027"/>
<path d="M19.7654 5.2174L24.0001 2.86475V5.2174H19.7654Z" fill="#0052B4"/>
<path d="M14.6086 4.55395V0H22.8051L14.6086 4.55395Z" fill="#0052B4"/>
<path d="M17.2643 5.21737L24 1.47534V0L14.6086 5.21737H17.2643Z" fill="#D80027"/>
</svg>
