<svg width="20" height="20" viewBox="0 0 20 20" fill="none" xmlns="http://www.w3.org/2000/svg">
<path fill-rule="evenodd" clip-rule="evenodd" d="M15.25 10.7917C16.4926 10.7917 17.5 11.7991 17.5 13.0417C17.5 14.2844 16.4926 15.2917 15.25 15.2917C14.2706 15.2917 13.4373 14.666 13.1283 13.7924L3.25 13.7917C2.83579 13.7917 2.5 13.456 2.5 13.0417C2.5 12.6275 2.83579 12.2917 3.25 12.2917L13.128 12.2918C13.4369 11.4179 14.2703 10.7917 15.25 10.7917ZM15.25 12.2917C14.8358 12.2917 14.5 12.6275 14.5 13.0417C14.5 13.456 14.8358 13.7917 15.25 13.7917C15.6642 13.7917 16 13.456 16 13.0417C16 12.6275 15.6642 12.2917 15.25 12.2917ZM4.75 5.54175C5.73385 5.54175 6.57021 6.17322 6.8759 7.05296C6.91599 7.04527 6.95758 7.04175 7 7.04175H16.75C17.1642 7.04175 17.5 7.37753 17.5 7.79175C17.5 8.20596 17.1642 8.54175 16.75 8.54175H7C6.95758 8.54175 6.91599 8.53823 6.87549 8.53146C6.57021 9.41028 5.73385 10.0417 4.75 10.0417C3.50736 10.0417 2.5 9.03439 2.5 7.79175C2.5 6.54911 3.50736 5.54175 4.75 5.54175ZM4.75 7.04175C4.33579 7.04175 4 7.37753 4 7.79175C4 8.20596 4.33579 8.54175 4.75 8.54175C5.16421 8.54175 5.5 8.20596 5.5 7.79175C5.5 7.37753 5.16421 7.04175 4.75 7.04175Z" fill="#616774"/>
</svg>
