<svg width="20" height="20" viewBox="0 0 20 20" fill="none" xmlns="http://www.w3.org/2000/svg">
<path d="M18.8753 17.6478L13.0785 11.8509C13.978 10.6879 14.4646 9.26606 14.4646 7.77053C14.4646 5.98035 13.766 4.30178 12.5026 3.03615C11.2392 1.77053 9.55615 1.0741 7.76821 1.0741C5.98026 1.0741 4.29722 1.77276 3.03383 3.03615C1.76821 4.29954 1.07178 5.98035 1.07178 7.77053C1.07178 9.55847 1.77044 11.2415 3.03383 12.5049C4.29722 13.7705 5.97803 14.467 7.76821 14.467C9.26374 14.467 10.6834 13.9803 11.8463 13.083L17.6432 18.8777C17.6602 18.8947 17.6804 18.9082 17.7026 18.9174C17.7248 18.9266 17.7486 18.9313 17.7727 18.9313C17.7967 18.9313 17.8205 18.9266 17.8427 18.9174C17.865 18.9082 17.8851 18.8947 17.9021 18.8777L18.8753 17.9067C18.8924 17.8897 18.9058 17.8695 18.9151 17.8473C18.9243 17.8251 18.929 17.8013 18.929 17.7772C18.929 17.7532 18.9243 17.7294 18.9151 17.7072C18.9058 17.6849 18.8924 17.6648 18.8753 17.6478ZM11.3039 11.3062C10.3575 12.2504 9.10303 12.7705 7.76821 12.7705C6.43338 12.7705 5.17892 12.2504 4.23249 11.3062C3.2883 10.3598 2.76821 9.10535 2.76821 7.77053C2.76821 6.4357 3.2883 5.17901 4.23249 4.23481C5.17892 3.29061 6.43338 2.77053 7.76821 2.77053C9.10303 2.77053 10.3597 3.28838 11.3039 4.23481C12.2481 5.18124 12.7682 6.4357 12.7682 7.77053C12.7682 9.10535 12.2481 10.362 11.3039 11.3062Z" fill="#616774"/>
</svg>
