<svg width="320" height="290" viewBox="0 0 320 290" fill="none" xmlns="http://www.w3.org/2000/svg">
<path d="M160 290C248.366 290 320 248.411 320 197.109C320 145.807 248.366 104.219 160 104.219C71.6344 104.219 0 145.807 0 197.109C0 248.411 71.6344 290 160 290Z" fill="#F5F5F5"/>
<path d="M48.2723 197.18C57.5114 202.49 57.5114 211.057 48.2723 216.296C39.0333 221.536 23.993 221.606 14.754 216.296C5.51495 210.986 5.51495 202.419 14.754 197.18C23.993 191.87 38.9617 191.87 48.2723 197.18Z" fill="#E0E0E0"/>
<path d="M68.5406 209.287L152.551 257.219C154.27 258.21 157.063 258.21 158.782 257.219L300.949 176.082C302.668 175.09 302.668 173.533 300.949 172.542L216.938 124.609C215.219 123.618 212.426 123.618 210.707 124.609L68.5406 205.747C66.8217 206.738 66.8217 208.367 68.5406 209.287Z" fill="#E0E0E0"/>
<path d="M280.537 158.948L274.664 155.62C274.664 155.62 271.155 141.318 272.587 128.433C274.521 110.308 284.405 102.449 291.137 105.068C295.649 106.838 297.081 111.865 289.49 122.698C285.049 128.999 279.534 142.239 280.537 158.948Z" fill="#004C98"/>
<g opacity="0.3">
<path d="M280.537 158.948L274.664 155.62C274.664 155.62 271.155 141.318 272.587 128.433C274.521 110.308 284.405 102.449 291.137 105.068C295.649 106.838 297.081 111.865 289.49 122.698C285.049 128.999 279.534 142.239 280.537 158.948Z" fill="black"/>
</g>
<path d="M278.102 151.868C278.389 151.797 278.532 151.584 278.46 151.372C275.237 134.663 281.182 115.901 288.487 108.113C288.63 107.971 288.63 107.688 288.487 107.546C288.344 107.405 288.057 107.405 287.914 107.546C280.466 115.476 274.45 134.521 277.744 151.514C277.744 151.797 277.887 151.938 278.102 151.868Z" fill="white"/>
<path d="M295.864 167.656C296.795 168.152 299.23 166.028 299.946 165.532C301.092 164.683 302.023 163.479 302.668 162.134C303.384 160.576 303.455 158.948 303.169 157.319C303.026 156.47 302.739 155.62 302.453 154.841C302.166 154.062 301.88 153.213 301.593 152.434C301.307 151.655 301.02 150.806 301.092 149.956C301.235 148.257 302.668 146.982 304.028 145.92C305.461 144.717 306.965 143.159 306.893 141.106C306.822 139.548 305.891 138.132 304.888 136.929C303.814 135.725 302.596 134.734 301.665 133.459C300.949 132.539 300.447 131.477 300.447 130.344C300.447 129.636 300.734 128.999 301.02 128.362C301.665 127.017 302.596 125.742 303.026 124.326C303.455 122.91 303.312 121.14 302.095 120.149C301.164 119.37 299.731 119.299 298.514 119.441C297.368 119.583 296.293 120.149 295.291 120.715C292.139 122.698 290.492 126.592 287.054 128.149C285.765 128.716 284.261 128.928 282.9 129.353C281.54 129.778 280.179 130.557 279.606 131.831C278.46 134.38 280.967 137.354 280.25 140.044C279.606 142.451 277.314 143.442 276.096 145.637C275.595 146.558 275.523 147.69 275.667 148.752C275.882 150.593 276.24 151.868 277.242 153.921C278.03 155.549 280.394 158.665 280.394 158.665C280.394 158.665 295.72 167.585 295.864 167.656Z" fill="#004C98"/>
<g opacity="0.15">
<path d="M295.864 167.656C296.795 168.152 299.23 166.028 299.946 165.532C301.092 164.683 302.023 163.479 302.668 162.134C303.384 160.576 303.455 158.948 303.169 157.319C303.026 156.47 302.739 155.62 302.453 154.841C302.166 154.062 301.88 153.213 301.593 152.434C301.307 151.655 301.02 150.806 301.092 149.956C301.235 148.257 302.668 146.982 304.028 145.92C305.461 144.717 306.965 143.159 306.893 141.106C306.822 139.548 305.891 138.132 304.888 136.929C303.814 135.725 302.596 134.734 301.665 133.459C300.949 132.539 300.447 131.477 300.447 130.344C300.447 129.636 300.734 128.999 301.02 128.362C301.665 127.017 302.596 125.742 303.026 124.326C303.455 122.91 303.312 121.14 302.095 120.149C301.164 119.37 299.731 119.299 298.514 119.441C297.368 119.583 296.293 120.149 295.291 120.715C292.139 122.698 290.492 126.592 287.054 128.149C285.765 128.716 284.261 128.928 282.9 129.353C281.54 129.778 280.179 130.557 279.606 131.831C278.46 134.38 280.967 137.354 280.25 140.044C279.606 142.451 277.314 143.442 276.096 145.637C275.595 146.558 275.523 147.69 275.667 148.752C275.882 150.593 276.24 151.868 277.242 153.921C278.03 155.549 280.394 158.665 280.394 158.665C280.394 158.665 295.72 167.585 295.864 167.656Z" fill="black"/>
</g>
<path d="M286.911 163.054C287.126 163.054 287.341 162.842 287.269 162.629C285.765 146.77 292.498 128.787 297.726 123.406C297.869 123.264 297.869 122.981 297.726 122.839C297.583 122.698 297.296 122.698 297.153 122.839C291.782 128.291 284.978 146.558 286.482 162.7C286.482 162.913 286.696 163.054 286.911 163.054Z" fill="white"/>
<path d="M288.487 143.513C288.559 143.513 288.559 143.513 288.63 143.513C293.715 141.672 300.161 141.106 300.233 141.035C300.448 141.035 300.591 140.823 300.591 140.61C300.591 140.398 300.376 140.256 300.161 140.256C300.09 140.256 293.572 140.894 288.344 142.734C288.129 142.805 288.057 143.018 288.129 143.23C288.129 143.372 288.344 143.513 288.487 143.513Z" fill="white"/>
<path d="M71.4058 200.508C71.4058 202.632 72.9814 205.181 74.9152 206.313L152.05 250.352C153.984 251.484 157.207 251.484 159.141 250.352L294.933 172.825C296.867 171.692 298.442 169.072 298.442 167.019C298.442 164.895 296.867 162.346 294.933 161.213L217.798 117.175C215.864 116.042 212.641 116.042 210.707 117.175L74.9868 194.702C73.053 195.835 71.4058 198.384 71.4058 200.508Z" fill="#37474F"/>
<path d="M74.9864 198.738L152.122 242.776C154.055 243.909 157.278 243.909 159.212 242.776L295.004 165.249C296.938 164.116 296.938 162.346 295.004 161.213L217.869 117.175C215.935 116.042 212.712 116.042 210.779 117.175L74.9864 194.702C73.0527 195.835 73.0527 197.605 74.9864 198.738Z" fill="#455A64"/>
<path d="M155.631 243.625V251.201C154.342 251.201 153.053 250.918 152.122 250.352L74.9864 206.313C73.0527 205.181 71.4771 202.561 71.4771 200.508C71.4771 198.525 72.9095 196.118 74.6283 194.915C73.0527 196.047 73.1959 197.676 74.9864 198.738L152.122 242.776C153.053 243.342 154.342 243.625 155.631 243.625Z" fill="#263238"/>
<path d="M68.1111 194.844C66.249 193.782 66.3922 192.012 66.3922 189.817V84.536C66.3922 82.2704 67.9678 79.5799 69.9016 78.4471L205.766 0.84946C207.699 -0.283352 210.779 -0.354153 212.641 0.707859C214.503 1.76987 214.36 3.53989 214.36 5.73471V111.015C214.36 113.281 212.784 115.972 210.851 117.104L74.9866 194.702C73.0529 195.835 69.9732 195.835 68.1111 194.844Z" fill="#37474F"/>
<path d="M214.36 5.80551C214.36 3.61069 212.784 2.69028 210.851 3.75229L74.9868 81.2791C73.9841 81.8456 73.1247 82.766 72.4801 83.8988L67.395 80.9959C68.0396 79.8631 68.899 78.9427 69.9017 78.3763L205.766 0.84946C207.699 -0.283352 210.779 -0.354153 212.641 0.707859C214.432 1.76987 214.36 3.53989 214.36 5.80551Z" fill="#455A64"/>
<path d="M74.5569 194.915C72.6232 195.835 69.83 195.835 68.1111 194.844C66.249 193.782 66.3922 192.012 66.3922 189.817V84.4653C66.3922 83.3325 66.7503 82.1289 67.4665 80.9961L72.5516 83.8989C71.907 85.0317 71.4772 86.2354 71.4772 87.3682V192.72C71.4056 194.773 72.838 195.693 74.5569 194.915Z" fill="#263238"/>
<path d="M76.9206 85.3149L207.843 10.6201C208.989 9.98291 209.991 10.4785 209.991 11.8237V103.723C209.991 105.068 209.06 106.697 207.843 107.334L76.9206 182.1C75.7747 182.737 74.772 182.241 74.772 180.896V88.9966C74.772 87.6514 75.703 86.023 76.9206 85.3149Z" fill="#FAFAFA"/>
<path d="M84.7984 194.915L210.85 122.981C211.853 122.415 213.429 122.415 214.36 122.981L216.437 124.114C217.439 124.68 217.439 125.601 216.437 126.167L90.3848 198.101C89.3821 198.667 87.8065 198.667 86.8754 198.101L84.7984 196.968C83.7957 196.331 83.7957 195.481 84.7984 194.915Z" fill="#263238"/>
<path d="M94.6823 200.72L220.734 128.787C221.737 128.22 223.169 128.149 223.957 128.645L256.759 147.407C257.547 147.903 257.404 148.682 256.473 149.248L130.564 221.04C129.561 221.606 128.129 221.677 127.341 221.252L94.3959 202.632C93.5364 202.065 93.6797 201.287 94.6823 200.72Z" fill="#263238"/>
<path d="M203.904 159.019L207.843 156.753C207.986 156.682 208.058 156.541 207.843 156.399L204.047 154.275C203.904 154.204 203.617 154.204 203.474 154.275L199.535 156.541C199.391 156.611 199.32 156.753 199.535 156.895L203.331 159.019C203.474 159.089 203.76 159.089 203.904 159.019ZM198.174 151.16L194.235 153.425C194.092 153.496 194.02 153.638 194.235 153.779L198.031 155.903C198.174 155.974 198.46 155.974 198.604 155.903L202.543 153.638C202.686 153.567 202.758 153.425 202.543 153.284L198.747 151.16C198.604 151.089 198.317 151.089 198.174 151.16ZM185.425 158.452L178.765 162.275C178.622 162.346 178.55 162.488 178.765 162.629L182.561 164.753C182.704 164.824 182.99 164.824 183.134 164.753L189.794 160.93C189.938 160.859 190.009 160.718 189.794 160.576L185.998 158.452C185.784 158.381 185.569 158.381 185.425 158.452ZM192.373 154.487L188.434 156.753C188.29 156.824 188.219 156.965 188.434 157.107L192.229 159.231C192.373 159.302 192.659 159.302 192.802 159.231L196.742 156.965C196.885 156.895 196.956 156.753 196.742 156.611L192.946 154.487C192.802 154.346 192.516 154.416 192.373 154.487ZM176.903 163.337L172.964 165.603C172.82 165.674 172.749 165.815 172.964 165.957L176.759 168.081C176.903 168.152 177.189 168.152 177.332 168.081L181.272 165.815C181.415 165.745 181.486 165.603 181.272 165.461L177.476 163.337C177.332 163.196 177.046 163.196 176.903 163.337ZM171.101 166.594L167.162 168.86C167.019 168.931 166.947 169.072 167.162 169.214L170.958 171.338C171.101 171.409 171.388 171.409 171.531 171.338L175.47 169.072C175.614 169.001 175.685 168.86 175.47 168.718L171.674 166.594C171.531 166.523 171.316 166.523 171.101 166.594ZM185.927 175.374L189.866 173.108C190.009 173.037 190.081 172.896 189.866 172.754L186.07 170.63C185.927 170.559 185.64 170.559 185.497 170.63L181.558 172.896C181.415 172.966 181.343 173.108 181.558 173.25L185.354 175.374C185.497 175.515 185.784 175.515 185.927 175.374ZM180.126 178.701L184.065 176.436C184.208 176.365 184.28 176.223 184.065 176.082L180.269 173.958C180.126 173.887 179.839 173.887 179.696 173.958L175.757 176.223C175.614 176.294 175.542 176.436 175.757 176.577L179.553 178.701C179.696 178.772 179.982 178.772 180.126 178.701ZM174.396 181.958L178.335 179.692C178.478 179.622 178.55 179.48 178.335 179.338L174.539 177.214C174.396 177.144 174.109 177.144 173.966 177.214L170.027 179.48C169.884 179.551 169.812 179.692 170.027 179.834L173.823 181.958C173.966 182.1 174.253 182.1 174.396 181.958ZM168.595 185.286L172.534 183.02C172.677 182.949 172.749 182.808 172.534 182.666L168.738 180.542C168.595 180.471 168.308 180.471 168.165 180.542L164.226 182.808C164.083 182.878 164.011 183.02 164.226 183.162L168.022 185.286C168.165 185.356 168.451 185.356 168.595 185.286ZM198.174 162.275L202.113 160.01C202.256 159.939 202.328 159.797 202.113 159.656L198.317 157.532C198.174 157.461 197.887 157.461 197.744 157.532L193.805 159.797C193.662 159.868 193.59 160.01 193.805 160.151L197.601 162.275C197.744 162.346 197.959 162.346 198.174 162.275ZM191.728 172.117L200.537 167.09C200.681 167.019 200.752 166.877 200.537 166.736L191.37 161.497C191.227 161.426 190.94 161.426 190.797 161.497L186.213 164.116C186.07 164.187 185.998 164.329 186.213 164.47L191.084 167.231C191.227 167.302 191.227 167.444 191.084 167.585L187.431 169.639C187.288 169.709 187.216 169.851 187.431 169.993L191.227 172.117C191.298 172.187 191.513 172.187 191.728 172.117ZM165.372 169.922L161.433 172.187C161.289 172.258 161.218 172.4 161.433 172.541L165.229 174.666C165.372 174.736 165.658 174.736 165.802 174.666L169.741 172.4C169.884 172.329 169.955 172.187 169.741 172.046L165.945 169.922C165.802 169.78 165.515 169.78 165.372 169.922ZM159.571 173.179L155.631 175.444C155.488 175.515 155.417 175.657 155.631 175.798L159.427 177.922C159.571 177.993 159.857 177.993 160 177.922L163.939 175.657C164.083 175.586 164.154 175.444 163.939 175.303L160.144 173.179C160 173.108 159.785 173.108 159.571 173.179ZM127.628 208.367C127.771 208.437 128.058 208.437 128.201 208.367L132.14 206.101C132.283 206.03 132.355 205.889 132.14 205.747L128.344 203.623C128.201 203.552 127.914 203.552 127.771 203.623L123.832 205.889C123.689 205.959 123.617 206.101 123.832 206.243L127.628 208.367ZM113.447 199.517L109.508 201.782C109.365 201.853 109.293 201.995 109.508 202.136L113.304 204.26C113.447 204.331 113.733 204.331 113.877 204.26L117.816 201.995C117.959 201.924 118.031 201.782 117.816 201.641L114.02 199.517C113.877 199.446 113.59 199.446 113.447 199.517ZM120.752 206.172C120.896 206.243 121.182 206.243 121.325 206.172L125.264 203.906C125.408 203.835 125.479 203.694 125.264 203.552L121.468 201.428C121.325 201.357 121.039 201.357 120.896 201.428L116.956 203.694C116.813 203.765 116.742 203.906 116.956 204.048L120.752 206.172ZM136.652 209.712L140.591 207.446C140.734 207.375 140.806 207.234 140.591 207.092L136.795 204.968C136.652 204.897 136.366 204.897 136.222 204.968L132.283 207.234C132.14 207.305 132.068 207.446 132.283 207.588L136.079 209.712C136.222 209.783 136.509 209.783 136.652 209.712ZM130.349 212.969C130.493 213.04 130.779 213.04 130.922 212.969L134.861 210.703C135.005 210.632 135.076 210.491 134.861 210.349L131.066 208.225C130.922 208.154 130.636 208.154 130.493 208.225L126.554 210.491C126.41 210.562 126.339 210.703 126.554 210.845L130.349 212.969ZM119.177 196.26L115.237 198.525C115.094 198.596 115.023 198.738 115.237 198.879L119.033 201.003C119.177 201.074 119.463 201.074 119.606 201.003L123.545 198.738C123.689 198.667 123.76 198.525 123.545 198.384L119.75 196.26C119.606 196.118 119.391 196.118 119.177 196.26ZM148.04 179.763L144.101 182.029C143.957 182.1 143.886 182.241 144.101 182.383L147.896 184.507C148.04 184.578 148.326 184.578 148.469 184.507L152.408 182.241C152.552 182.17 152.623 182.029 152.408 181.887L148.613 179.763C148.469 179.692 148.183 179.692 148.04 179.763ZM124.978 192.932L121.039 195.198C120.896 195.269 120.824 195.41 121.039 195.552L124.835 197.676C124.978 197.747 125.264 197.747 125.408 197.676L129.347 195.41C129.49 195.339 129.562 195.198 129.347 195.056L125.551 192.932C125.408 192.861 125.121 192.861 124.978 192.932ZM153.841 176.506L149.902 178.772C149.759 178.843 149.687 178.984 149.902 179.126L153.698 181.25C153.841 181.321 154.127 181.321 154.271 181.25L158.21 178.984C158.353 178.914 158.425 178.772 158.21 178.63L154.414 176.506C154.271 176.365 153.984 176.365 153.841 176.506ZM142.31 183.091L138.371 185.356C138.228 185.427 138.156 185.569 138.371 185.71L142.167 187.834C142.31 187.905 142.596 187.905 142.74 187.834L146.679 185.569C146.822 185.498 146.894 185.356 146.679 185.215L142.883 183.091C142.74 182.949 142.453 182.949 142.31 183.091ZM136.509 186.348L132.57 188.613C132.426 188.684 132.355 188.826 132.57 188.967L136.366 191.091C136.509 191.162 136.795 191.162 136.938 191.091L140.878 188.826C141.021 188.755 141.092 188.613 140.878 188.472L137.082 186.348C136.938 186.277 136.652 186.277 136.509 186.348ZM130.708 189.675L126.768 191.941C126.625 192.012 126.554 192.153 126.768 192.295L130.564 194.419C130.708 194.49 130.994 194.49 131.137 194.419L135.076 192.153C135.22 192.083 135.291 191.941 135.076 191.799L131.28 189.675C131.137 189.534 130.922 189.534 130.708 189.675ZM157.064 191.87L161.003 189.604C161.146 189.534 161.218 189.392 161.003 189.25L157.207 187.126C157.064 187.056 156.777 187.056 156.634 187.126L152.695 189.392C152.552 189.463 152.48 189.604 152.695 189.746L156.491 191.87C156.634 191.941 156.921 191.941 157.064 191.87ZM210.922 143.938L206.983 146.204C206.84 146.274 206.768 146.416 206.983 146.558L210.779 148.682C210.922 148.752 211.209 148.752 211.352 148.682L215.291 146.416C215.434 146.345 215.506 146.204 215.291 146.062L211.495 143.938C211.352 143.796 211.066 143.796 210.922 143.938ZM203.904 147.903L199.964 150.168C199.821 150.239 199.75 150.381 199.964 150.522L203.76 152.646C203.904 152.717 204.19 152.717 204.333 152.646L208.272 150.381C208.416 150.31 208.487 150.168 208.272 150.027L204.477 147.903C204.333 147.761 204.047 147.832 203.904 147.903ZM216.652 140.61L212.713 142.876C212.57 142.947 212.498 143.088 212.713 143.23L216.509 145.354C216.652 145.425 216.938 145.425 217.082 145.354L221.021 143.088C221.164 143.018 221.236 142.876 221.021 142.734L217.225 140.61C217.082 140.54 216.867 140.54 216.652 140.61ZM184.781 169.922L188.72 167.656C188.863 167.585 188.935 167.444 188.72 167.302L184.924 165.178C184.781 165.107 184.494 165.107 184.351 165.178L180.412 167.444C180.269 167.515 180.197 167.656 180.412 167.798L184.208 169.922C184.351 169.993 184.638 169.993 184.781 169.922ZM223.026 137.283C222.883 137.212 222.597 137.212 222.453 137.283L218.514 139.548C218.371 139.619 218.299 139.761 218.514 139.902L222.31 142.026C222.453 142.097 222.74 142.097 222.883 142.026L226.822 139.761C226.965 139.69 227.037 139.548 226.822 139.407L223.026 137.283ZM162.865 188.542L166.804 186.277C166.947 186.206 167.019 186.064 166.804 185.923L163.008 183.799C162.865 183.728 162.579 183.728 162.435 183.799L158.496 186.064C158.353 186.135 158.281 186.277 158.496 186.418L162.292 188.542C162.435 188.684 162.65 188.684 162.865 188.542ZM233.626 148.186L237.565 145.92C237.708 145.85 237.78 145.708 237.565 145.566L233.769 143.442C233.626 143.372 233.34 143.372 233.196 143.442L229.257 145.708C229.114 145.779 229.042 145.92 229.257 146.062L233.053 148.186C233.196 148.328 233.411 148.328 233.626 148.186ZM222.453 148.398L226.392 146.133C226.536 146.062 226.607 145.92 226.392 145.779L222.596 143.655C222.453 143.584 222.167 143.584 222.024 143.655L218.084 145.92C217.941 145.991 217.87 146.133 218.084 146.274L221.88 148.398C222.024 148.54 222.238 148.54 222.453 148.398ZM228.398 140.398C228.255 140.327 227.968 140.327 227.825 140.398L223.886 142.664C223.742 142.734 223.671 142.876 223.886 143.018L227.682 145.142C227.825 145.212 228.111 145.212 228.255 145.142L232.194 142.876C232.337 142.805 232.409 142.664 232.194 142.522L228.398 140.398ZM229.615 139.69L238.783 144.929C238.926 145 239.212 145 239.356 144.929L243.295 142.664C243.438 142.593 243.51 142.451 243.295 142.31L234.127 137.07C233.984 137 233.698 137 233.554 137.07L229.615 139.336C229.472 139.478 229.472 139.619 229.615 139.69ZM216.294 146.982L212.355 149.248C212.212 149.319 212.14 149.46 212.355 149.602L216.151 151.726C216.294 151.797 216.58 151.797 216.724 151.726L220.663 149.46C220.806 149.39 220.878 149.248 220.663 149.106L216.867 146.982C216.724 146.912 216.437 146.912 216.294 146.982ZM172.892 171.763L168.953 174.028C168.81 174.099 168.738 174.241 168.953 174.382L172.749 176.506C172.892 176.577 173.178 176.577 173.322 176.506L177.261 174.241C177.404 174.17 177.476 174.028 177.261 173.887L173.465 171.763C173.322 171.692 173.035 171.692 172.892 171.763ZM227.252 151.514C227.395 151.584 227.682 151.584 227.825 151.514L231.764 149.248C231.907 149.177 231.979 149.036 231.764 148.894L227.968 146.77C227.825 146.699 227.538 146.699 227.395 146.77L223.456 149.036C223.313 149.106 223.241 149.248 223.456 149.39L227.252 151.514ZM178.622 168.506L174.682 170.771C174.539 170.842 174.468 170.984 174.682 171.125L178.478 173.25C178.622 173.32 178.908 173.32 179.051 173.25L182.99 170.984C183.134 170.913 183.205 170.771 182.99 170.63L179.195 168.506C179.051 168.364 178.836 168.364 178.622 168.506ZM133.429 205.039C133.572 205.11 133.859 205.11 134.002 205.039L137.941 202.773C138.084 202.703 138.156 202.561 137.941 202.419L134.145 200.295C134.002 200.225 133.716 200.225 133.572 200.295L129.633 202.561C129.49 202.632 129.418 202.773 129.633 202.915L133.429 205.039ZM126.697 198.101L122.758 200.366C122.614 200.437 122.543 200.579 122.758 200.72L126.554 202.844C126.697 202.915 126.983 202.915 127.126 202.844L131.066 200.579C131.209 200.508 131.28 200.366 131.066 200.225L127.27 198.101C127.126 198.03 126.912 198.03 126.697 198.101ZM139.803 201.711L143.742 199.446C143.886 199.375 143.957 199.233 143.742 199.092L139.947 196.968C139.803 196.897 139.517 196.897 139.374 196.968L135.434 199.233C135.291 199.304 135.22 199.446 135.434 199.587L139.23 201.711C139.374 201.853 139.588 201.853 139.803 201.711ZM145.533 198.455L149.472 196.189C149.615 196.118 149.687 195.977 149.472 195.835L145.676 193.711C145.533 193.64 145.246 193.64 145.103 193.711L141.164 195.977C141.021 196.047 140.949 196.189 141.164 196.331L144.96 198.455C145.103 198.525 145.39 198.525 145.533 198.455ZM151.334 195.127L155.273 192.861C155.417 192.791 155.488 192.649 155.273 192.507L151.477 190.383C151.334 190.312 151.048 190.312 150.904 190.383L146.965 192.649C146.822 192.72 146.75 192.861 146.965 193.003L150.761 195.127C150.904 195.269 151.119 195.269 151.334 195.127ZM132.498 194.844L128.559 197.109C128.416 197.18 128.344 197.322 128.559 197.463L132.355 199.587C132.498 199.658 132.785 199.658 132.928 199.587L136.867 197.322C137.01 197.251 137.082 197.109 136.867 196.968L133.071 194.844C132.928 194.702 132.641 194.702 132.498 194.844ZM138.228 191.516L134.289 193.782C134.145 193.853 134.074 193.994 134.289 194.136L138.084 196.26C138.228 196.331 138.514 196.331 138.657 196.26L142.597 193.994C142.74 193.923 142.811 193.782 142.597 193.64L138.801 191.516C138.657 191.445 138.443 191.445 138.228 191.516ZM161.361 178.347L157.422 180.613C157.279 180.684 157.207 180.825 157.422 180.967L161.218 183.091C161.361 183.162 161.648 183.162 161.791 183.091L165.73 180.825C165.873 180.754 165.945 180.613 165.73 180.471L161.934 178.347C161.791 178.276 161.504 178.276 161.361 178.347ZM155.56 181.675L151.621 183.94C151.477 184.011 151.406 184.153 151.621 184.294L155.417 186.418C155.56 186.489 155.846 186.489 155.99 186.418L159.929 184.153C160.072 184.082 160.143 183.94 159.929 183.799L156.133 181.675C155.99 181.533 155.703 181.533 155.56 181.675ZM167.091 175.09L163.152 177.356C163.008 177.427 162.937 177.568 163.152 177.71L166.947 179.834C167.091 179.905 167.377 179.905 167.52 179.834L171.46 177.568C171.603 177.498 171.674 177.356 171.46 177.214L167.664 175.09C167.52 174.949 167.306 174.949 167.091 175.09ZM144.029 188.259L140.09 190.525C139.947 190.596 139.875 190.737 140.09 190.879L143.886 193.003C144.029 193.074 144.315 193.074 144.459 193.003L148.398 190.737C148.541 190.666 148.613 190.525 148.398 190.383L144.602 188.259C144.459 188.118 144.172 188.118 144.029 188.259ZM149.83 184.932L145.891 187.197C145.748 187.268 145.676 187.41 145.891 187.551L149.687 189.675C149.83 189.746 150.117 189.746 150.26 189.675L154.199 187.41C154.342 187.339 154.414 187.197 154.199 187.056L150.403 184.932C150.188 184.861 149.973 184.861 149.83 184.932ZM142.453 206.384L146.392 204.119C146.536 204.048 146.607 203.906 146.392 203.765L142.597 201.641C142.453 201.57 142.167 201.57 142.024 201.641L138.084 203.906C137.941 203.977 137.87 204.119 138.084 204.26L141.88 206.384C142.024 206.455 142.238 206.455 142.453 206.384ZM112.015 204.968L108.219 202.844C108.075 202.773 107.789 202.773 107.646 202.844L103.707 205.11C103.563 205.181 103.492 205.322 103.707 205.464L107.502 207.588C107.646 207.659 107.932 207.659 108.075 207.588L112.015 205.322C112.158 205.181 112.158 205.039 112.015 204.968ZM119.535 206.809L115.739 204.685C115.596 204.614 115.309 204.614 115.166 204.685L109.078 208.154C108.935 208.225 108.863 208.367 109.078 208.508L112.874 210.632C113.017 210.703 113.304 210.703 113.447 210.632L119.535 207.163C119.678 207.092 119.678 206.951 119.535 206.809ZM106.357 200.72L102.561 198.596C102.417 198.525 102.131 198.525 101.988 198.596L97.1175 201.357C96.9743 201.428 96.9027 201.57 97.1175 201.711L100.913 203.835C101.057 203.906 101.343 203.906 101.486 203.835L106.357 201.074C106.5 200.933 106.5 200.791 106.357 200.72ZM110.081 198.596C110.224 198.667 110.511 198.667 110.654 198.596L114.593 196.331C114.736 196.26 114.808 196.118 114.593 195.977L110.797 193.853C110.654 193.782 110.367 193.782 110.224 193.853L106.285 196.118C106.142 196.189 106.07 196.331 106.285 196.472L110.081 198.596ZM126.482 209.075L122.686 206.951C122.543 206.88 122.256 206.88 122.113 206.951L114.521 211.27C114.378 211.34 114.306 211.482 114.521 211.624L118.317 213.748C118.46 213.818 118.747 213.818 118.89 213.748L126.482 209.429C126.554 209.287 126.625 209.145 126.482 209.075ZM129.132 213.677L125.336 211.553C125.193 211.482 124.906 211.482 124.763 211.553L119.893 214.314C119.75 214.385 119.678 214.526 119.893 214.668L123.689 216.792C123.832 216.863 124.118 216.863 124.262 216.792L129.132 214.031C129.275 213.889 129.275 213.748 129.132 213.677ZM152.981 174.099C153.125 174.17 153.411 174.17 153.554 174.099L157.494 171.833C157.637 171.763 157.708 171.621 157.494 171.479L153.698 169.355C153.554 169.285 153.268 169.285 153.125 169.355L149.186 171.621C149.042 171.692 148.971 171.833 149.186 171.975L152.981 174.099ZM141.451 180.684C141.594 180.754 141.88 180.754 142.024 180.684L145.963 178.418C146.106 178.347 146.178 178.206 145.963 178.064L142.167 175.94C142.024 175.869 141.737 175.869 141.594 175.94L137.655 178.206C137.511 178.276 137.44 178.418 137.655 178.56L141.451 180.684ZM115.882 195.269C116.025 195.339 116.312 195.339 116.455 195.269L120.394 193.003C120.537 192.932 120.609 192.791 120.394 192.649L116.598 190.525C116.455 190.454 116.169 190.454 116.025 190.525L112.086 192.791C111.943 192.861 111.871 193.003 112.086 193.145L115.882 195.269ZM147.252 177.427C147.395 177.498 147.682 177.498 147.825 177.427L151.764 175.161C151.907 175.09 151.979 174.949 151.764 174.807L147.968 172.683C147.825 172.612 147.538 172.612 147.395 172.683L143.456 174.949C143.313 175.02 143.241 175.161 143.456 175.303L147.252 177.427ZM135.721 184.011C135.864 184.082 136.151 184.082 136.294 184.011L140.233 181.746C140.376 181.675 140.448 181.533 140.233 181.392L136.437 179.268C136.294 179.197 136.007 179.197 135.864 179.268L131.925 181.533C131.782 181.604 131.71 181.746 131.925 181.887L135.721 184.011ZM131.925 213.889C131.782 213.818 131.495 213.818 131.352 213.889L125.264 217.358C125.121 217.429 125.049 217.571 125.264 217.712L129.06 219.836C129.203 219.907 129.49 219.907 129.633 219.836L135.721 216.367C135.864 216.296 135.936 216.155 135.721 216.013L131.925 213.889ZM127.413 188.684C127.556 188.755 127.843 188.755 127.986 188.684L131.925 186.418C132.068 186.348 132.14 186.206 131.925 186.064L128.129 183.94C127.986 183.87 127.699 183.87 127.556 183.94L123.617 186.206C123.474 186.277 123.402 186.418 123.617 186.56L127.413 188.684ZM121.612 192.012C121.755 192.083 122.041 192.083 122.185 192.012L126.124 189.746C126.267 189.675 126.339 189.534 126.124 189.392L122.328 187.268C122.185 187.197 121.898 187.197 121.755 187.268L117.816 189.534C117.673 189.604 117.601 189.746 117.816 189.888L121.612 192.012ZM238.783 152.93C238.639 152.859 238.353 152.859 238.21 152.93L228.469 158.452C228.326 158.523 228.255 158.665 228.469 158.806L232.265 160.93C232.408 161.001 232.695 161.001 232.838 160.93L242.579 155.408C242.722 155.337 242.793 155.195 242.579 155.054L238.783 152.93ZM226.034 160.222C225.891 160.151 225.605 160.151 225.461 160.222L221.522 162.488C221.379 162.559 221.307 162.7 221.522 162.842L225.318 164.966C225.461 165.037 225.748 165.037 225.891 164.966L229.83 162.7C229.973 162.629 230.045 162.488 229.83 162.346L226.034 160.222ZM148.183 203.127L152.122 200.862C152.265 200.791 152.337 200.649 152.122 200.508L148.326 198.384C148.183 198.313 147.896 198.313 147.753 198.384L143.814 200.649C143.671 200.72 143.599 200.862 143.814 201.003L147.61 203.127C147.753 203.198 148.04 203.198 148.183 203.127ZM214.503 166.807C214.36 166.736 214.074 166.736 213.93 166.807L209.991 169.072C209.848 169.143 209.776 169.285 209.991 169.426L213.787 171.55C213.93 171.621 214.217 171.621 214.36 171.55L218.299 169.285C218.443 169.214 218.514 169.072 218.299 168.931L214.503 166.807ZM244.584 149.602C244.441 149.531 244.154 149.531 244.011 149.602L240.072 151.868C239.929 151.938 239.857 152.08 240.072 152.222L243.868 154.346C244.011 154.416 244.297 154.416 244.441 154.346L248.38 152.08C248.523 152.009 248.595 151.868 248.38 151.726L244.584 149.602ZM254.109 148.469L244.942 143.23C244.799 143.159 244.512 143.159 244.369 143.23L240.43 145.496C240.287 145.566 240.215 145.708 240.43 145.85L249.597 151.089C249.741 151.16 250.027 151.16 250.17 151.089L254.109 148.823C254.253 148.752 254.253 148.54 254.109 148.469ZM192.946 179.055C192.802 178.984 192.516 178.984 192.373 179.055L187.502 181.816C187.359 181.887 187.288 182.029 187.502 182.17L191.298 184.294C191.442 184.365 191.728 184.365 191.871 184.294L196.742 181.533C196.885 181.462 196.956 181.321 196.742 181.179L192.946 179.055ZM207.556 170.771C207.413 170.701 207.126 170.701 206.983 170.771L200.896 174.241C200.752 174.312 200.681 174.453 200.896 174.595L204.691 176.719C204.835 176.79 205.121 176.79 205.264 176.719L211.352 173.25C211.495 173.179 211.567 173.037 211.352 172.896L207.556 170.771ZM179.624 186.702C179.481 186.631 179.195 186.631 179.051 186.702L146.536 205.251C146.392 205.322 146.321 205.464 146.536 205.605L150.331 207.729C150.475 207.8 150.761 207.8 150.904 207.729L183.42 189.18C183.563 189.109 183.635 188.967 183.42 188.826L179.624 186.702ZM145.318 206.313C145.175 206.243 144.888 206.243 144.745 206.313L139.875 209.075C139.732 209.145 139.66 209.287 139.875 209.429L143.671 211.553C143.814 211.624 144.101 211.624 144.244 211.553L149.114 208.791C149.257 208.721 149.329 208.579 149.114 208.437L145.318 206.313ZM186.285 182.878C186.142 182.808 185.855 182.808 185.712 182.878L180.842 185.64C180.699 185.71 180.627 185.852 180.842 185.994L184.638 188.118C184.781 188.188 185.067 188.188 185.211 188.118L190.081 185.356C190.224 185.286 190.296 185.144 190.081 185.002L186.285 182.878ZM138.657 210.066C138.514 209.995 138.228 209.995 138.084 210.066L133.214 212.827C133.071 212.898 132.999 213.04 133.214 213.181L137.01 215.305C137.153 215.376 137.44 215.376 137.583 215.305L142.453 212.544C142.596 212.473 142.668 212.332 142.453 212.19L138.657 210.066ZM199.678 175.303C199.535 175.232 199.248 175.232 199.105 175.303L194.235 178.064C194.092 178.135 194.02 178.276 194.235 178.418L198.031 180.542C198.174 180.613 198.46 180.613 198.604 180.542L203.474 177.781C203.617 177.71 203.689 177.568 203.474 177.427L199.678 175.303ZM220.305 163.479C220.161 163.408 219.875 163.408 219.732 163.479L215.793 165.745C215.649 165.815 215.578 165.957 215.793 166.099L219.588 168.223C219.732 168.293 220.018 168.293 220.161 168.223L224.101 165.957C224.244 165.886 224.315 165.745 224.101 165.603L220.305 163.479ZM233.196 154.558L237.135 152.292C237.279 152.222 237.35 152.08 237.135 151.938L233.34 149.814C233.196 149.744 232.91 149.744 232.767 149.814L228.827 152.08C228.684 152.151 228.613 152.292 228.827 152.434L232.623 154.558C232.767 154.7 233.053 154.7 233.196 154.558ZM209.705 155.691L213.644 153.425C213.787 153.354 213.859 153.213 213.644 153.071L209.848 150.947C209.705 150.876 209.418 150.876 209.275 150.947L205.336 153.213C205.193 153.284 205.121 153.425 205.336 153.567L209.132 155.691C209.275 155.762 209.49 155.762 209.705 155.691ZM194.378 176.719L205.909 170.134C206.052 170.063 206.124 169.922 205.909 169.78L202.113 167.656C201.97 167.585 201.683 167.585 201.54 167.656L190.009 174.241C189.866 174.312 189.794 174.453 190.009 174.595L193.805 176.719C193.948 176.86 194.163 176.86 194.378 176.719ZM226.894 157.886C227.037 157.957 227.323 157.957 227.467 157.886L231.406 155.62C231.549 155.549 231.621 155.408 231.406 155.266L227.61 153.142C227.467 153.071 227.18 153.071 227.037 153.142L223.098 155.408C222.955 155.479 222.883 155.62 223.098 155.762L226.894 157.886ZM222.024 154.771L225.963 152.505C226.106 152.434 226.178 152.292 225.963 152.151L222.167 150.027C222.024 149.956 221.737 149.956 221.594 150.027L217.655 152.292C217.511 152.363 217.44 152.505 217.655 152.646L221.451 154.771C221.665 154.912 221.88 154.912 222.024 154.771ZM188.577 180.046L192.516 177.781C192.659 177.71 192.731 177.568 192.516 177.427L188.72 175.303C188.577 175.232 188.29 175.232 188.147 175.303L184.208 177.568C184.065 177.639 183.993 177.781 184.208 177.922L188.004 180.046C188.147 180.117 188.434 180.117 188.577 180.046ZM214.145 165.178C214.289 165.249 214.575 165.249 214.718 165.178L218.657 162.913C218.801 162.842 218.872 162.7 218.657 162.559L214.861 160.435C214.718 160.364 214.432 160.364 214.289 160.435L210.349 162.7C210.206 162.771 210.135 162.913 210.349 163.054L214.145 165.178ZM159.714 196.543L163.653 194.277C163.796 194.207 163.868 194.065 163.653 193.923L159.857 191.799C159.714 191.729 159.427 191.729 159.284 191.799L155.345 194.065C155.202 194.136 155.13 194.277 155.345 194.419L159.141 196.543C159.284 196.614 159.571 196.614 159.714 196.543ZM165.515 193.215L169.454 190.95C169.597 190.879 169.669 190.737 169.454 190.596L165.658 188.472C165.515 188.401 165.229 188.401 165.085 188.472L161.146 190.737C161.003 190.808 160.931 190.95 161.146 191.091L164.942 193.215C165.085 193.286 165.372 193.286 165.515 193.215ZM153.984 199.8L157.923 197.534C158.067 197.463 158.138 197.322 157.923 197.18L154.127 195.056C153.984 194.985 153.698 194.985 153.554 195.056L149.615 197.322C149.472 197.393 149.4 197.534 149.615 197.676L153.411 199.8C153.554 199.871 153.841 199.871 153.984 199.8ZM177.046 186.631L180.985 184.365C181.128 184.294 181.2 184.153 180.985 184.011L177.189 181.887C177.046 181.816 176.759 181.816 176.616 181.887L172.677 184.153C172.534 184.224 172.462 184.365 172.677 184.507L176.473 186.631C176.616 186.702 176.903 186.702 177.046 186.631ZM171.245 189.888L175.184 187.622C175.327 187.551 175.399 187.41 175.184 187.268L171.388 185.144C171.245 185.073 170.958 185.073 170.815 185.144L166.876 187.41C166.733 187.48 166.661 187.622 166.876 187.764L170.672 189.888C170.887 190.029 171.101 190.029 171.245 189.888ZM182.847 183.303L186.786 181.038C186.93 180.967 187.001 180.825 186.786 180.684L182.99 178.56C182.847 178.489 182.561 178.489 182.417 178.56L178.478 180.825C178.335 180.896 178.263 181.038 178.478 181.179L182.274 183.303C182.417 183.445 182.632 183.445 182.847 183.303ZM214.289 137.566C214.432 137.637 214.718 137.637 214.861 137.566L218.801 135.3C218.944 135.229 219.015 135.088 218.801 134.946L217.798 134.38C217.655 134.309 217.368 134.309 217.225 134.38L213.286 136.646C213.143 136.716 213.071 136.858 213.286 137L214.289 137.566ZM185.64 155.479C185.784 155.549 186.07 155.549 186.213 155.479L190.152 153.213C190.296 153.142 190.367 153 190.152 152.859L186.357 150.735C186.213 150.664 185.927 150.664 185.784 150.735L181.844 153C181.701 153.071 181.63 153.213 181.844 153.354L185.64 155.479ZM197.171 148.894C197.314 148.965 197.601 148.965 197.744 148.894L201.683 146.628C201.827 146.558 201.898 146.416 201.683 146.274L197.887 144.15C197.744 144.08 197.458 144.08 197.314 144.15L193.375 146.416C193.232 146.487 193.161 146.628 193.375 146.77L197.171 148.894ZM178.55 159.514C178.693 159.585 178.98 159.585 179.123 159.514L183.062 157.249C183.205 157.178 183.277 157.036 183.062 156.895L179.266 154.771C179.123 154.7 178.836 154.7 178.693 154.771L174.754 157.036C174.611 157.107 174.539 157.249 174.754 157.39L178.55 159.514ZM191.37 152.222C191.513 152.292 191.8 152.292 191.943 152.222L195.882 149.956C196.025 149.885 196.097 149.744 195.882 149.602L192.086 147.478C191.943 147.407 191.656 147.407 191.513 147.478L187.574 149.744C187.431 149.814 187.359 149.956 187.574 150.098L191.37 152.222ZM167.019 166.099C167.162 166.169 167.449 166.169 167.592 166.099L171.531 163.833C171.674 163.762 171.746 163.621 171.531 163.479L167.735 161.355C167.592 161.284 167.306 161.284 167.162 161.355L163.223 163.621C163.08 163.691 163.008 163.833 163.223 163.975L167.019 166.099ZM172.82 162.771C172.964 162.842 173.25 162.842 173.393 162.771L177.332 160.505C177.476 160.435 177.547 160.293 177.332 160.151L173.537 158.027C173.393 157.957 173.107 157.957 172.964 158.027L169.024 160.293C168.881 160.364 168.81 160.505 169.024 160.647L172.82 162.771ZM202.758 144.15C202.901 144.221 203.187 144.221 203.331 144.15L207.27 141.885C207.413 141.814 207.485 141.672 207.27 141.531L206.267 140.964C206.124 140.894 205.837 140.894 205.694 140.964L201.755 143.23C201.612 143.301 201.54 143.442 201.755 143.584L202.758 144.15ZM220.09 134.238C220.233 134.309 220.52 134.309 220.663 134.238L224.602 131.973C224.745 131.902 224.817 131.76 224.602 131.619L223.599 131.052C223.456 130.981 223.169 130.981 223.026 131.052L219.087 133.318C218.944 133.389 218.872 133.53 219.087 133.672L220.09 134.238ZM227.968 138.77C228.111 138.84 228.398 138.84 228.541 138.77L232.48 136.504C232.623 136.433 232.695 136.292 232.48 136.15L228.684 134.026C228.541 133.955 228.255 133.955 228.111 134.026L224.172 136.291C224.029 136.362 223.957 136.504 224.172 136.646L227.968 138.77ZM238.998 151.301L242.937 149.036C243.08 148.965 243.152 148.823 242.937 148.682L239.141 146.558C238.998 146.487 238.711 146.487 238.568 146.558L234.629 148.823C234.485 148.894 234.414 149.036 234.629 149.177L238.425 151.301C238.568 151.372 238.854 151.372 238.998 151.301ZM208.559 140.823C208.702 140.894 208.989 140.894 209.132 140.823L213.071 138.557C213.214 138.486 213.286 138.345 213.071 138.203L212.068 137.637C211.925 137.566 211.639 137.566 211.495 137.637L207.556 139.902C207.413 139.973 207.341 140.115 207.556 140.256L208.559 140.823ZM161.289 169.355C161.433 169.426 161.719 169.426 161.862 169.355L165.802 167.09C165.945 167.019 166.016 166.877 165.802 166.736L162.006 164.612C161.862 164.541 161.576 164.541 161.433 164.612L157.494 166.877C157.35 166.948 157.279 167.09 157.494 167.231L161.289 169.355Z" fill="#455A64"/>
<path d="M178.335 198.809L179.123 199.233L200.681 211.553L238.854 189.675L239.642 189.25L217.368 176.506L178.335 198.809Z" fill="#37474F"/>
<path d="M179.123 199.233L200.68 211.553L238.854 189.675L217.368 177.427L179.123 199.233Z" fill="#263238"/>
<path d="M57.6547 103.228L48.917 98.2007C48.5589 97.9883 48.2724 97.9175 48.0575 97.9883C47.8427 98.0591 47.1265 98.4839 46.9832 98.6255C46.7684 98.6963 46.7684 99.0503 47.0549 99.5459L49.2035 103.936L47.6278 105.352C46.9116 105.989 46.9832 106.98 47.8427 107.405L56.5804 112.432L57.6547 111.794V103.228Z" fill="#004C98"/>
<path opacity="0.5" d="M57.6547 103.228L48.917 98.2007C48.5589 97.9883 48.2724 97.9175 48.0575 97.9883C47.8427 98.0591 47.1265 98.4839 46.9832 98.6255C46.7684 98.6963 46.7684 99.0503 47.0549 99.5459L49.2035 103.936L47.6278 105.352C46.9116 105.989 46.9832 106.98 47.8427 107.405L56.5804 112.432L57.6547 111.794V103.228Z" fill="white"/>
<path d="M47.7712 98.8379C46.9117 98.3423 46.5536 98.6963 46.9834 99.5459L49.132 103.936L47.5563 105.352C46.8401 105.989 46.9117 106.98 47.7712 107.405L56.5089 112.432V103.865L47.7712 98.8379Z" fill="#004C98"/>
<path d="M57.5833 130.769C57.0103 130.769 56.5806 130.344 56.5806 129.778V101.033C56.5806 100.466 57.0103 100.042 57.5833 100.042C58.1562 100.042 58.5859 100.466 58.5859 101.033V129.778C58.5859 130.344 58.1562 130.769 57.5833 130.769Z" fill="#455A64"/>
<path d="M19.9106 207.375V205.605H20.3404C20.8417 204.543 21.8444 203.552 23.2768 202.773C27.7889 200.225 35.1658 200.225 39.6779 202.773C41.1103 203.623 42.113 204.614 42.6143 205.605H43.044V207.375C43.1157 209.075 41.9697 210.845 39.6779 212.119C35.1658 214.668 27.7889 214.668 23.2768 212.119C21.0566 210.774 19.9106 209.075 19.9106 207.375Z" fill="#263238"/>
<path d="M31.5132 212.119C37.921 212.119 43.1157 209.171 43.1157 205.535C43.1157 201.898 37.921 198.95 31.5132 198.95C25.1053 198.95 19.9106 201.898 19.9106 205.535C19.9106 209.171 25.1053 212.119 31.5132 212.119Z" fill="#455A64"/>
<path d="M34.4494 143.301V204.827C34.4494 205.251 34.1629 205.676 33.5899 206.03C32.444 206.667 30.5103 206.667 29.3643 206.03C28.7914 205.676 28.5049 205.251 28.5049 204.827V143.301H34.4494Z" fill="#37474F"/>
<path d="M28.5049 150.735V156.47L34.4494 159.868V154.133L28.5049 150.735Z" fill="#263238"/>
<path d="M50.1347 137.778L61.1642 144.08C61.0926 144.15 61.021 144.221 60.9493 144.292L41.6835 155.337C41.5402 155.408 41.397 155.337 41.397 155.195V141.46C41.397 139.053 41.9699 136.433 42.9726 133.743L50.1347 137.778Z" fill="#004C98"/>
<path opacity="0.4" d="M50.1347 137.778L61.1642 144.08C61.0926 144.15 61.021 144.221 60.9493 144.292L41.6835 155.337C41.5402 155.408 41.397 155.337 41.397 155.195V141.46C41.397 139.053 41.9699 136.433 42.9726 133.743L50.1347 137.778Z" fill="black"/>
<path d="M61.2359 128.716V144.08L42.9727 133.672C42.9727 133.601 43.0443 133.601 43.0443 133.53C44.978 128.716 48.2726 124.609 51.8536 122.556C53.3576 121.707 54.7184 121.282 56.0076 121.282C59.2305 121.282 61.2359 124.185 61.2359 128.716Z" fill="#004C98"/>
<path opacity="0.3" d="M61.2359 128.716V144.08L42.9727 133.672C42.9727 133.601 43.0443 133.601 43.0443 133.53C44.978 128.716 48.2726 124.609 51.8536 122.556C53.3576 121.707 54.7184 121.282 56.0076 121.282C59.2305 121.282 61.2359 124.185 61.2359 128.716Z" fill="black"/>
<path d="M81.0744 161.284V159.939H80.9312V160.151C80.8596 159.797 80.7163 159.373 80.5731 159.019C79.8569 157.319 78.2812 155.691 75.9894 154.417L62.9545 146.982C62.3815 146.699 61.5221 146.699 61.0207 146.982L41.0386 158.381C40.8238 158.169 40.6089 158.027 40.394 157.673V159.089C40.394 159.302 40.5373 159.514 40.8238 159.656L53.8587 167.09C57.3681 169.072 61.9518 170.063 66.3206 169.993C70.1165 169.922 73.8408 169.143 76.7056 167.515C79.642 165.745 81.0744 163.55 81.0744 161.284Z" fill="#004C98"/>
<path opacity="0.4" d="M81.0744 161.284V159.939H80.9312V160.151C80.8596 159.797 80.7163 159.373 80.5731 159.019C79.8569 157.319 78.2812 155.691 75.9894 154.417L62.9545 146.982C62.3815 146.699 61.5221 146.699 61.0207 146.982L41.0386 158.381C40.8238 158.169 40.6089 158.027 40.394 157.673V159.089C40.394 159.302 40.5373 159.514 40.8238 159.656L53.8587 167.09C57.3681 169.072 61.9518 170.063 66.3206 169.993C70.1165 169.922 73.8408 169.143 76.7056 167.515C79.642 165.745 81.0744 163.55 81.0744 161.284Z" fill="black"/>
<path d="M80.573 159.019C79.8568 157.319 78.2812 155.691 75.9893 154.417L62.9544 146.982C62.3815 146.699 61.522 146.699 61.0207 146.982L41.0386 158.381L53.8586 165.674C57.368 167.656 61.9517 168.647 66.3206 168.577C70.1165 168.506 73.8407 167.727 76.7055 166.099C79.3555 164.612 80.7879 162.629 81.0744 160.647C81.0028 160.081 80.8595 159.514 80.573 159.019Z" fill="#004C98"/>
<path opacity="0.2" d="M80.573 159.019C79.8568 157.319 78.2812 155.691 75.9893 154.417L62.9544 146.982C62.3815 146.699 61.522 146.699 61.0207 146.982L41.0386 158.381L53.8586 165.674C57.368 167.656 61.9517 168.647 66.3206 168.577C70.1165 168.506 73.8407 167.727 76.7055 166.099C79.3555 164.612 80.7879 162.629 81.0744 160.647C81.0028 160.081 80.8595 159.514 80.573 159.019Z" fill="black"/>
<path d="M81.0746 160.576C81.003 160.01 80.8597 159.514 80.6449 158.948C79.9287 157.249 78.353 155.62 76.0612 154.346L63.0263 146.912C62.4533 146.628 61.5938 146.628 61.0925 146.912L41.1104 158.311L40.8955 158.169C40.3226 157.886 40.3226 157.39 40.8955 157.036L61.0925 145.496C61.6655 145.212 62.5249 145.212 63.0263 145.496L76.0612 152.93C78.4246 154.275 79.9287 155.903 80.6449 157.532C80.8597 158.098 81.0746 158.665 81.0746 159.231C81.1462 159.727 81.0746 160.151 81.0746 160.576Z" fill="#004C98"/>
<path opacity="0.3" d="M81.0746 160.576C81.003 160.01 80.8597 159.514 80.6449 158.948C79.9287 157.249 78.353 155.62 76.0612 154.346L63.0263 146.912C62.4533 146.628 61.5938 146.628 61.0925 146.912L41.1104 158.311L40.8955 158.169C40.3226 157.886 40.3226 157.39 40.8955 157.036L61.0925 145.496C61.6655 145.212 62.5249 145.212 63.0263 145.496L76.0612 152.93C78.4246 154.275 79.9287 155.903 80.6449 157.532C80.8597 158.098 81.0746 158.665 81.0746 159.231C81.1462 159.727 81.0746 160.151 81.0746 160.576Z" fill="black"/>
<path d="M41.1821 156.824L61.3791 145.354L60.9494 144.292L41.6835 155.337L41.1821 156.824Z" fill="#004C98"/>
<path opacity="0.1" d="M41.1821 156.824L61.3791 145.354L60.9494 144.292L41.6835 155.337L41.1821 156.824Z" fill="black"/>
<path d="M59.4451 127.795C59.4451 127.512 59.2302 127.158 58.9437 126.946L34.3779 112.998C34.0914 112.856 33.6617 112.856 33.4469 112.998L32.8739 113.281C32.5874 113.423 32.3726 113.777 32.3726 114.131V132.751C32.3726 133.035 32.5874 133.389 32.8739 133.601L57.4397 147.62C57.7262 147.761 58.1559 147.761 58.3708 147.62L58.9437 147.336C59.2302 147.195 59.4451 146.841 59.4451 146.487V127.795Z" fill="#F5F5F5"/>
<path d="M59.3017 127.371L57.9409 128.149L32.5156 113.635C32.5872 113.494 32.7305 113.352 32.8737 113.281L33.4467 112.998C33.7332 112.856 34.1629 112.856 34.3778 112.998L58.9436 127.017C59.1584 127.087 59.23 127.229 59.3017 127.371Z" fill="#E0E0E0"/>
<path d="M57.9412 128.149L57.6547 128.291C57.798 128.362 57.9412 128.503 57.9412 128.716V147.336C57.9412 147.478 57.8696 147.62 57.798 147.62C57.7263 147.62 57.6547 147.62 57.5831 147.62C57.5831 147.62 57.5115 147.62 57.5115 147.549L32.9457 133.53C32.6592 133.389 32.4443 133.035 32.4443 132.681V114.06C32.4443 113.918 32.516 113.706 32.5876 113.564L57.9412 128.149Z" fill="#EBEBEB"/>
<path opacity="0.2" d="M57.941 128.149L46.5534 132.327C45.7656 132.61 44.8345 132.327 44.3332 131.619L42.471 128.857L32.3726 113.564L42.1129 128.928L32.3726 132.681C32.3726 132.822 32.4442 133.035 32.5158 133.176L42.1846 128.999L44.3332 132.327C44.8345 133.105 45.8372 133.389 46.625 133.035L48.129 132.397L57.7978 147.62C57.8694 147.549 57.941 147.478 57.941 147.336V147.053L48.2007 132.397L57.941 128.149Z" fill="black"/>
<path d="M53.6438 131.123C53.6438 130.84 53.4289 130.486 53.1425 130.273L28.5767 116.255C28.2902 116.113 27.8605 116.113 27.6456 116.255L27.0726 116.538C26.7862 116.68 26.5713 117.034 26.5713 117.388V136.008C26.5713 136.292 26.7862 136.646 27.0726 136.858L51.6384 150.876C51.9249 151.018 52.3546 151.018 52.5695 150.876L53.1425 150.593C53.4289 150.452 53.6438 150.098 53.6438 149.744V131.123Z" fill="#F5F5F5"/>
<path d="M53.5004 130.627L52.1396 131.406L26.7144 116.892C26.786 116.75 26.9292 116.609 27.0725 116.538L27.6454 116.255C27.9319 116.113 28.3616 116.113 28.5765 116.255L53.1423 130.273C53.2855 130.344 53.4288 130.486 53.5004 130.627Z" fill="#E0E0E0"/>
<path d="M52.1399 131.406L51.8535 131.548C51.9967 131.619 52.1399 131.76 52.1399 131.973V150.593C52.1399 150.735 52.0683 150.876 51.9967 150.876C51.9251 150.876 51.8535 150.947 51.7818 150.876C51.7102 150.876 51.7102 150.876 51.7102 150.806L27.1444 136.787C26.8579 136.646 26.6431 136.292 26.6431 135.938V117.317C26.6431 117.175 26.7147 116.963 26.7863 116.821L52.1399 131.406Z" fill="#EBEBEB"/>
<path opacity="0.2" d="M52.1398 131.406L40.7521 135.583C39.9643 135.867 39.0332 135.583 38.5319 134.875L36.6698 132.114L26.5713 116.821L36.3117 132.185L26.5713 135.938C26.5713 136.079 26.6429 136.292 26.7145 136.433L36.3833 132.256L38.5319 135.583C39.0332 136.362 40.0359 136.646 40.8238 136.292L42.3278 135.654L51.9965 150.876C52.0682 150.806 52.1398 150.735 52.1398 150.593V150.31L42.3994 135.725L52.1398 131.406Z" fill="black"/>
<path d="M47.8425 134.451C47.8425 134.167 47.6277 133.813 47.3412 133.601L22.7754 119.583C22.4889 119.441 22.0592 119.441 21.8443 119.583L21.2714 119.866C20.9849 120.007 20.77 120.361 20.77 120.715V139.336C20.77 139.619 20.9849 139.973 21.2714 140.186L45.8372 154.204C46.1236 154.346 46.5534 154.346 46.7682 154.204L47.3412 153.921C47.6277 153.779 47.8425 153.425 47.8425 153.071V134.451Z" fill="#F5F5F5"/>
<path d="M47.6991 133.955L46.3383 134.734L20.9131 120.22C20.9847 120.078 21.1279 119.937 21.2712 119.866L21.8442 119.583C22.1306 119.441 22.5604 119.441 22.7752 119.583L47.341 133.601C47.4843 133.672 47.6275 133.813 47.6991 133.955Z" fill="#E0E0E0"/>
<path d="M46.3385 134.734L46.052 134.875C46.1953 134.946 46.3385 135.088 46.3385 135.3V153.921C46.3385 154.062 46.2669 154.204 46.1953 154.204C46.1236 154.204 46.052 154.204 45.9804 154.204C45.9804 154.204 45.9088 154.204 45.9088 154.133L21.2714 140.186C20.9849 140.044 20.77 139.69 20.77 139.336V120.715C20.77 120.574 20.8416 120.361 20.9133 120.22L46.3385 134.734Z" fill="#EBEBEB"/>
<path opacity="0.2" d="M46.3385 134.734L34.9509 138.911C34.163 139.194 33.232 138.911 32.7306 138.203L30.8685 135.442L20.77 120.149L30.5104 135.513L20.77 139.336C20.77 139.478 20.8416 139.69 20.9133 139.832L30.582 135.654L32.7306 138.982C33.232 139.761 34.2347 140.044 35.0225 139.69L36.5265 139.053L46.1953 154.275C46.2669 154.204 46.3385 154.133 46.3385 153.992V153.708L36.5981 139.124L46.3385 134.734Z" fill="black"/>
<path d="M58.7289 120.786C56.7952 119.795 54.1452 119.937 51.352 121.565C48.2007 123.406 45.2643 126.663 43.2589 130.415C42.7576 131.265 42.3995 132.185 41.9697 133.105C40.8954 135.867 40.1792 138.699 40.1792 141.389V157.107C39.8211 157.107 39.463 157.036 39.1765 156.895L10.8865 140.752C10.3135 140.469 9.88379 139.69 9.88379 139.053V124.114C9.88379 116.68 14.8256 107.83 20.985 104.29C23.9214 102.661 26.4997 102.52 28.5051 103.582L58.7289 120.786Z" fill="#004C98"/>
<path opacity="0.2" d="M58.7289 120.786C56.7952 119.795 54.1452 119.937 51.352 121.565C48.2007 123.406 45.2643 126.663 43.2589 130.415C42.7576 131.265 42.3995 132.185 41.9697 133.105C40.8954 135.867 40.1792 138.699 40.1792 141.389V157.107C39.8211 157.107 39.463 157.036 39.1765 156.895L10.8865 140.752C10.3135 140.469 9.88379 139.69 9.88379 139.053V124.114C9.88379 116.68 14.8256 107.83 20.985 104.29C23.9214 102.661 26.4997 102.52 28.5051 103.582L58.7289 120.786Z" fill="black"/>
<path opacity="0.1" d="M10.9579 140.681L39.248 156.824C39.5345 156.965 39.8926 157.036 40.2507 157.036V141.318C40.2507 139.902 40.4655 138.416 40.752 136.929L10.5282 119.653C10.1701 121.14 10.0269 122.627 10.0269 124.043V138.982C9.95523 139.619 10.385 140.398 10.9579 140.681Z" fill="black"/>
<path d="M41.9699 133.105C40.8956 135.867 40.1794 138.699 40.1794 141.389V157.107C40.0362 157.107 39.9645 157.107 39.8213 157.036C39.8213 156.116 39.8213 151.089 39.8213 141.389C39.8213 129.849 48.8455 122.485 51.2806 121.565C48.1293 123.406 45.1928 126.663 43.1874 130.415C42.7577 131.335 42.328 132.185 41.9699 133.105Z" fill="#004C98"/>
<path opacity="0.4" d="M41.9699 133.105C40.8956 135.867 40.1794 138.699 40.1794 141.389V157.107C40.0362 157.107 39.9645 157.107 39.8213 157.036C39.8213 156.116 39.8213 151.089 39.8213 141.389C39.8213 129.849 48.8455 122.485 51.2806 121.565C48.1293 123.406 45.1928 126.663 43.1874 130.415C42.7577 131.335 42.328 132.185 41.9699 133.105Z" fill="black"/>
<path d="M41.6834 155.337C41.5401 155.408 41.3969 155.337 41.3969 155.195V141.46C41.3969 139.053 41.9699 136.433 43.0442 133.743C43.0442 133.672 43.1158 133.672 43.1158 133.601C43.5455 132.61 43.9752 131.689 44.4766 130.769C46.4103 127.158 49.1319 124.255 51.9967 122.627C53.5008 121.777 54.8615 121.353 56.1507 121.353C56.9385 121.353 57.6547 121.565 58.2993 121.848C60.2331 122.839 61.379 125.317 61.379 128.787V143.796C61.379 144.009 61.2358 144.221 61.0925 144.292L61.5222 145.354L61.5939 145.283C61.7371 145.212 61.8803 145.071 62.0236 144.929C62.3101 144.575 62.5249 144.08 62.5249 143.726V128.787C62.5249 124.822 61.0925 121.99 58.8007 120.857C56.8669 119.866 54.2886 120.007 51.4238 121.636C48.2725 123.477 45.336 126.733 43.3307 130.486C42.8293 131.335 42.4712 132.256 42.0415 133.176C40.9672 135.938 40.251 138.77 40.251 141.46V157.178C40.3226 157.178 40.3942 157.178 40.3942 157.178C40.6807 157.178 40.9672 157.107 41.182 156.965L41.6834 155.337Z" fill="#004C98"/>
<path opacity="0.1" d="M41.6834 155.337C41.5401 155.408 41.3969 155.337 41.3969 155.195V141.46C41.3969 139.053 41.9699 136.433 43.0442 133.743C43.0442 133.672 43.1158 133.672 43.1158 133.601C43.5455 132.61 43.9752 131.689 44.4766 130.769C46.4103 127.158 49.1319 124.255 51.9967 122.627C53.5008 121.777 54.8615 121.353 56.1507 121.353C56.9385 121.353 57.6547 121.565 58.2993 121.848C60.2331 122.839 61.379 125.317 61.379 128.787V143.796C61.379 144.009 61.2358 144.221 61.0925 144.292L61.5222 145.354L61.5939 145.283C61.7371 145.212 61.8803 145.071 62.0236 144.929C62.3101 144.575 62.5249 144.08 62.5249 143.726V128.787C62.5249 124.822 61.0925 121.99 58.8007 120.857C56.8669 119.866 54.2886 120.007 51.4238 121.636C48.2725 123.477 45.336 126.733 43.3307 130.486C42.8293 131.335 42.4712 132.256 42.0415 133.176C40.9672 135.938 40.251 138.77 40.251 141.46V157.178C40.3226 157.178 40.3942 157.178 40.3942 157.178C40.6807 157.178 40.9672 157.107 41.182 156.965L41.6834 155.337Z" fill="black"/>
<path d="M109.078 115.051C109.078 113.848 109.938 112.432 110.94 111.865L202.758 59.4727C203.76 58.9063 205.479 58.9063 206.482 59.4727L208.559 60.6763C209.562 61.2427 210.421 62.6587 210.421 63.8623V135.938C210.421 137.07 209.562 138.557 208.559 139.124L116.742 191.516C115.739 192.083 114.02 192.083 113.017 191.516L110.94 190.312C109.938 189.746 109.078 188.33 109.078 187.126V115.051Z" fill="#004C98"/>
<g opacity="0.7">
<path d="M109.078 115.051C109.078 113.848 109.938 112.432 110.94 111.865L202.758 59.4727C203.76 58.9063 205.479 58.9063 206.482 59.4727L208.559 60.6763C209.562 61.2427 210.421 62.6587 210.421 63.8623V135.938C210.421 137.07 209.562 138.557 208.559 139.124L116.742 191.516C115.739 192.083 114.02 192.083 113.017 191.516L110.94 190.312C109.938 189.746 109.078 188.33 109.078 187.126V115.051Z" fill="white"/>
</g>
<path d="M109.651 113.21L114.951 116.255L209.919 62.0215C209.561 61.4551 209.132 60.9595 208.63 60.6763L206.553 59.4727C205.551 58.9063 203.832 58.9063 202.829 59.4727L111.012 111.865C110.439 112.148 110.009 112.644 109.651 113.21Z" fill="#004C98"/>
<path opacity="0.8" d="M109.651 113.21L114.951 116.255L209.919 62.0215C209.561 61.4551 209.132 60.9595 208.63 60.6763L206.553 59.4727C205.551 58.9063 203.832 58.9063 202.829 59.4727L111.012 111.865C110.439 112.148 110.009 112.644 109.651 113.21Z" fill="white"/>
<path opacity="0.1" d="M109.078 115.051V187.197C109.078 188.401 109.938 189.817 110.94 190.383L113.017 191.587C113.16 191.658 113.375 191.729 113.519 191.799C113.733 191.87 114.02 191.941 114.306 191.941C114.808 192.012 115.309 192.012 115.81 191.87C115.954 191.87 116.025 191.799 116.169 191.799C116.24 191.799 116.312 191.729 116.383 191.729C116.025 191.87 115.739 191.799 115.452 191.729C115.094 191.516 114.879 191.162 114.879 190.525V118.379C114.879 117.6 115.237 117.034 115.882 116.821L114.879 116.255L109.579 113.21C109.293 113.777 109.078 114.414 109.078 115.051Z" fill="#004C98"/>
<path opacity="0.05" d="M109.078 115.051V187.197C109.078 188.401 109.938 189.817 110.94 190.383L113.017 191.587C113.16 191.658 113.375 191.729 113.519 191.799C113.733 191.87 114.02 191.941 114.306 191.941C114.808 192.012 115.309 192.012 115.81 191.87C115.954 191.87 116.025 191.799 116.169 191.799C116.24 191.799 116.312 191.729 116.383 191.729C116.025 191.87 115.739 191.799 115.452 191.729C115.094 191.516 114.879 191.162 114.879 190.525V118.379C114.879 117.6 115.237 117.034 115.882 116.821L114.879 116.255L109.579 113.21C109.293 113.777 109.078 114.414 109.078 115.051Z" fill="black"/>
<path opacity="0.2" d="M114.951 116.255L159.069 132.539C162.221 133.672 165.73 132.539 167.592 129.778L174.683 119.087L209.991 62.0923L176.115 119.512L210.564 136.079C210.564 136.646 210.35 137.354 209.991 137.92L176.043 119.653L167.807 132.681C165.945 135.654 162.077 136.858 158.854 135.371L152.982 132.822L115.667 191.729C115.309 191.516 115.094 191.162 115.094 190.525V189.321L152.838 132.751L114.951 116.255Z" fill="#004C98"/>
<path opacity="0.05" d="M114.951 116.255L159.069 132.539C162.221 133.672 165.73 132.539 167.592 129.778L174.683 119.087L209.991 62.0923L176.115 119.512L210.564 136.079C210.564 136.646 210.35 137.354 209.991 137.92L176.043 119.653L167.807 132.681C165.945 135.654 162.077 136.858 158.854 135.371L152.982 132.822L115.667 191.729C115.309 191.516 115.094 191.162 115.094 190.525V189.321L152.838 132.751L114.951 116.255Z" fill="black"/>
<path d="M132.354 128.291C132.354 127.087 133.214 125.671 134.217 125.105L226.034 72.7124C227.037 72.146 228.756 72.146 229.758 72.7124L231.835 73.916C232.838 74.4824 233.697 75.8984 233.697 77.1021V149.248C233.697 150.381 232.838 151.868 231.835 152.434L140.018 204.827C139.015 205.393 137.296 205.393 136.294 204.827L134.217 203.623C133.214 203.057 132.354 201.57 132.354 200.437V128.291Z" fill="#004C98"/>
<g opacity="0.5">
<path d="M132.354 128.291C132.354 127.087 133.214 125.671 134.217 125.105L226.034 72.7124C227.037 72.146 228.756 72.146 229.758 72.7124L231.835 73.916C232.838 74.4824 233.697 75.8984 233.697 77.1021V149.248C233.697 150.381 232.838 151.868 231.835 152.434L140.018 204.827C139.015 205.393 137.296 205.393 136.294 204.827L134.217 203.623C133.214 203.057 132.354 201.57 132.354 200.437V128.291Z" fill="white"/>
</g>
<path d="M132.927 126.521L138.227 129.566L233.196 75.3322C232.838 74.7658 232.408 74.2702 231.907 73.987L229.83 72.7834C228.827 72.217 227.108 72.217 226.105 72.7834L134.288 125.176C133.715 125.459 133.285 125.955 132.927 126.521Z" fill="#004C98"/>
<path opacity="0.6" d="M132.927 126.521L138.227 129.566L233.196 75.3322C232.838 74.7658 232.408 74.2702 231.907 73.987L229.83 72.7834C228.827 72.217 227.108 72.217 226.105 72.7834L134.288 125.176C133.715 125.459 133.285 125.955 132.927 126.521Z" fill="white"/>
<path opacity="0.1" d="M132.354 128.291V200.437C132.354 201.641 133.214 203.057 134.217 203.623L136.294 204.827C136.437 204.897 136.652 204.968 136.795 205.039C137.01 205.11 137.296 205.181 137.583 205.181C138.084 205.251 138.585 205.251 139.087 205.11C139.23 205.11 139.302 205.039 139.445 205.039C139.517 205.039 139.588 204.968 139.66 204.968C139.302 205.11 139.015 205.039 138.8 204.968C138.442 204.756 138.227 204.402 138.227 203.765V131.619C138.227 130.84 138.585 130.273 139.23 130.061L138.227 129.495L132.927 126.45C132.569 127.087 132.354 127.725 132.354 128.291Z" fill="black"/>
<path opacity="0.4" d="M138.228 129.495L182.346 145.779C185.497 146.912 189.006 145.779 190.869 143.018L197.959 132.327L233.268 75.332L199.391 132.751L233.841 149.319C233.841 149.885 233.626 150.593 233.268 151.16L199.32 132.893L191.083 145.92C189.221 148.894 185.354 150.098 182.131 148.611L176.258 146.062L138.944 204.968C138.586 204.756 138.371 204.402 138.371 203.765V202.561L176.115 145.991L138.228 129.495Z" fill="#004C98"/>
<path opacity="0.05" d="M138.228 129.495L182.346 145.779C185.497 146.912 189.006 145.779 190.869 143.018L197.959 132.327L233.268 75.332L199.391 132.751L233.841 149.319C233.841 149.885 233.626 150.593 233.268 151.16L199.32 132.893L191.083 145.92C189.221 148.894 185.354 150.098 182.131 148.611L176.258 146.062L138.944 204.968C138.586 204.756 138.371 204.402 138.371 203.765V202.561L176.115 145.991L138.228 129.495Z" fill="black"/>
<path d="M155.846 142.168L251.388 87.6514L255.184 89.8462C256.186 90.4126 256.974 91.8286 256.974 92.8906V162.559C256.974 163.691 256.186 165.037 255.184 165.603L163.295 218.137C162.292 218.704 160.716 218.704 159.714 218.137L157.708 217.004C156.706 216.438 155.918 215.022 155.918 213.96L155.846 142.168Z" fill="#004C98"/>
<path opacity="0.2" d="M155.846 142.168L251.388 87.6514L255.184 89.8462C256.186 90.4126 256.974 91.8286 256.974 92.8906V162.559C256.974 163.691 256.186 165.037 255.184 165.603L163.295 218.137C162.292 218.704 160.716 218.704 159.714 218.137L157.708 217.004C156.706 216.438 155.918 215.022 155.918 213.96L155.846 142.168Z" fill="black"/>
<path d="M250.815 81.5625L251.173 81.3501L249.669 80.5005C249.526 80.4297 249.382 80.3589 249.239 80.2881L207.198 64.8535C206.052 64.4287 204.62 64.9243 203.975 65.8447L157.064 133.813C156.419 134.805 155.846 136.504 155.846 137.708C155.846 139.619 155.846 142.239 155.846 142.239L157.279 143.088L251.388 87.6514V83.1201C251.388 82.6245 251.173 82.0581 250.815 81.5625Z" fill="#004C98"/>
<path opacity="0.1" d="M206.052 66.2695C205.837 66.4111 205.694 66.5527 205.551 66.7651L158.496 134.663C158.138 135.159 157.851 135.867 157.637 136.575L156.204 135.725C156.276 135.371 156.419 135.017 156.562 134.734C156.634 134.592 156.705 134.451 156.777 134.309C156.777 134.309 156.777 134.238 156.849 134.238C156.92 134.097 156.992 133.955 157.064 133.813L204.118 65.9155C204.19 65.8447 204.261 65.7031 204.333 65.6323C204.405 65.5615 204.476 65.4907 204.62 65.4199L206.052 66.2695Z" fill="black"/>
<path opacity="0.35" d="M251.245 81.3501C251.101 81.2793 250.958 81.2085 250.815 81.1377L208.774 65.7031C207.914 65.3491 206.768 65.6323 206.052 66.1987L204.62 65.3491C205.336 64.7119 206.482 64.4995 207.341 64.8535L249.382 80.2881C249.526 80.3589 249.669 80.4297 249.74 80.5005L251.245 81.3501Z" fill="white"/>
<path d="M156.777 134.238C156.848 134.097 156.92 133.955 157.063 133.813C156.992 133.955 156.92 134.097 156.777 134.238Z" fill="#004C98"/>
<path d="M156.204 135.725C156.347 135.371 156.419 135.017 156.562 134.663C156.419 135.017 156.276 135.371 156.204 135.725Z" fill="#004C98"/>
<path d="M156.562 134.663C156.634 134.521 156.705 134.38 156.777 134.238C156.705 134.451 156.634 134.521 156.562 134.663Z" fill="#004C98"/>
<path d="M205.55 66.7651L158.496 134.663C157.851 135.654 157.278 137.354 157.278 138.557C157.278 140.469 157.278 143.088 157.278 143.088L252.82 88.501V83.9697C252.82 82.7661 251.889 81.4917 250.815 81.1377L208.773 65.7031C207.699 65.3491 206.195 65.7739 205.55 66.7651Z" fill="#004C98"/>
<path opacity="0.05" d="M252.82 83.9697C252.82 83.4033 252.605 82.8369 252.319 82.4121L157.636 136.575C157.422 137.212 157.278 137.92 157.278 138.486C157.278 140.398 157.278 143.018 157.278 143.018L252.82 88.501V83.9697Z" fill="black"/>
<path d="M248.737 64.8535C248.737 64.3579 248.594 64.0039 248.308 63.8623C248.021 63.7207 245.658 62.3755 245.371 62.1631C245.085 62.0215 244.727 62.0215 244.297 62.3047L165.944 107.051C165.085 107.546 164.369 108.75 164.369 109.741V202.49C164.369 202.986 164.512 203.34 164.798 203.481C165.085 203.623 167.448 204.968 167.735 205.11C168.021 205.251 168.379 205.251 168.809 204.968L247.162 160.222C248.021 159.727 248.737 158.523 248.737 157.603V64.8535Z" fill="#F0F0F0"/>
<path d="M168.881 205.039L247.234 160.293C248.093 159.797 248.809 158.594 248.809 157.603V64.8535C248.809 63.8623 248.093 63.5083 247.234 64.0039L168.881 108.75C168.021 109.246 167.305 110.449 167.305 111.44V204.189C167.305 205.11 168.021 205.464 168.881 205.039Z" fill="#FAFAFA"/>
<path d="M219.086 117.246C219.015 118.379 218.8 119.37 218.514 120.361C218.227 121.353 217.797 122.202 217.368 122.981C216.938 123.76 216.437 124.397 215.864 124.963C215.291 125.53 214.789 125.955 214.216 126.238C213.214 126.733 212.497 126.946 211.924 126.804C211.423 126.663 210.993 126.45 210.778 126.096C210.635 126.45 210.42 126.804 210.277 127.229C210.062 127.583 209.847 127.937 209.561 128.362C209.274 128.716 208.916 129.07 208.487 129.424C208.057 129.778 207.556 130.132 206.911 130.415C206.195 130.769 205.55 130.911 204.977 130.769C204.404 130.627 203.903 130.344 203.545 129.778C203.187 129.211 202.9 128.503 202.685 127.512C202.471 126.592 202.471 125.459 202.471 124.114C202.542 122.839 202.685 121.565 202.972 120.432C203.258 119.229 203.545 118.167 203.975 117.246C204.404 116.255 204.906 115.405 205.479 114.697C206.052 113.989 206.768 113.423 207.484 113.069C208.272 112.644 208.845 112.502 209.274 112.715C209.633 112.856 209.991 113.14 210.206 113.564V113.21C210.206 112.927 210.277 112.573 210.492 112.29C210.635 112.007 210.85 111.794 211.065 111.653L212.569 110.874C212.784 110.732 212.999 110.803 213.142 110.945C213.285 111.086 213.357 111.299 213.357 111.653L212.999 120.715C212.999 121.423 213.07 121.848 213.357 122.061C213.643 122.273 214.001 122.273 214.36 122.061C214.718 121.848 215.076 121.494 215.434 120.999C215.72 120.503 215.935 119.724 216.007 118.804C216.078 118.025 216.15 117.175 216.15 116.396C216.15 115.547 216.222 114.768 216.15 114.06C216.078 112.573 215.935 111.299 215.577 110.308C215.219 109.316 214.789 108.608 214.145 108.113C213.5 107.688 212.712 107.476 211.71 107.617C210.707 107.688 209.561 108.113 208.2 108.821C207.054 109.387 206.052 110.166 205.12 111.086C204.189 112.007 203.402 113.069 202.685 114.202C201.969 115.334 201.468 116.609 201.038 117.954C200.608 119.299 200.322 120.715 200.107 122.131C200.035 122.485 200.035 123.052 199.964 123.618C199.964 124.255 199.892 124.893 199.892 125.53C199.892 126.167 199.821 126.804 199.821 127.441C199.821 128.079 199.821 128.574 199.821 128.928C199.892 130.203 200.107 131.335 200.465 132.256C200.823 133.176 201.325 133.884 201.898 134.451C202.542 134.946 203.258 135.229 204.118 135.229C204.977 135.229 205.98 134.946 207.126 134.38C207.914 133.955 208.63 133.53 209.203 133.176C209.776 132.751 210.349 132.327 210.778 131.902C211.208 131.477 211.638 131.052 211.924 130.698C212.283 130.273 212.569 129.919 212.784 129.495C212.999 129.141 213.214 128.928 213.285 128.716C213.428 128.574 213.572 128.433 213.787 128.291L215.935 127.158C216.15 127.017 216.365 127.087 216.508 127.158C216.651 127.3 216.723 127.512 216.723 127.937C216.723 128.149 216.651 128.433 216.508 128.645C216.078 129.424 215.577 130.273 215.004 131.194C214.431 132.114 213.787 132.964 213.07 133.813C212.354 134.663 211.423 135.513 210.42 136.292C209.418 137.141 208.2 137.849 206.839 138.557C205.12 139.407 203.616 139.832 202.399 139.761C201.11 139.69 200.107 139.265 199.248 138.486C198.388 137.708 197.744 136.646 197.314 135.229C196.884 133.884 196.598 132.327 196.598 130.557C196.598 130.203 196.598 129.636 196.598 128.999C196.598 128.362 196.669 127.654 196.669 126.946C196.669 126.238 196.741 125.53 196.741 124.893C196.741 124.255 196.813 123.689 196.813 123.335C196.956 121.494 197.314 119.653 197.887 117.812C198.46 115.901 199.248 114.131 200.179 112.432C201.11 110.732 202.256 109.175 203.616 107.759C204.977 106.343 206.481 105.21 208.2 104.36C210.206 103.369 211.853 102.874 213.285 102.874C214.646 102.874 215.72 103.228 216.58 104.006C217.439 104.785 218.012 105.847 218.442 107.263C218.8 108.679 219.015 110.308 219.086 112.078C219.086 112.786 219.086 113.635 219.015 114.626C219.158 115.547 219.158 116.396 219.086 117.246ZM205.622 122.415C205.55 123.831 205.693 124.822 206.052 125.388C206.41 125.955 206.911 126.096 207.627 125.742C208.343 125.388 208.916 124.751 209.274 123.76C209.633 122.839 209.919 121.636 209.919 120.22C209.991 118.804 209.847 117.813 209.489 117.246C209.131 116.68 208.63 116.538 207.914 116.892C207.197 117.246 206.696 117.883 206.266 118.875C205.908 119.795 205.693 120.999 205.622 122.415Z" fill="#004C98"/>
<path d="M167.305 204.119C167.305 204.543 167.448 204.897 167.663 205.039C167.162 204.756 165.085 203.552 164.87 203.411C164.584 203.269 164.44 202.915 164.44 202.419V109.67C164.44 109.175 164.584 108.679 164.87 108.184L167.807 109.812C167.52 110.308 167.377 110.803 167.377 111.299V204.119H167.305Z" fill="#E0E0E0"/>
<path d="M254.539 163.55C254.539 163.621 254.467 163.621 254.467 163.691L214.646 151.23C211.495 149.885 207.843 150.947 206.052 153.85L163.51 216.367L161.934 217.288C161.433 217.571 161.003 217.571 160.716 217.429L204.476 153C206.267 150.098 209.991 149.036 213.071 150.381L254.539 163.55Z" fill="#004C98"/>
<path opacity="0.4" d="M202.113 159.939L202.184 159.868L163.438 216.367L161.862 217.288C161.361 217.571 160.931 217.571 160.645 217.429L200.537 159.089L202.113 159.939Z" fill="white"/>
<path opacity="0.4" d="M254.611 163.55C254.611 163.621 254.539 163.621 254.539 163.691L214.718 151.23C211.567 149.885 207.914 150.947 206.123 153.85L204.548 152.93C206.338 150.098 209.991 148.965 213.142 150.31L254.611 163.55Z" fill="white"/>
<path d="M256.974 92.4658C256.903 91.9702 256.616 91.8286 256.258 92.041C256.115 92.1118 255.972 92.3242 255.828 92.5366L255.614 92.8198L216.294 151.868L210.421 159.939C209.776 160.859 208.344 161.426 207.198 161.143L202.113 159.939L163.438 145.85C163.152 145.779 162.865 145.779 162.65 145.85C162.579 145.85 162.435 145.92 162.364 145.92L163.796 145.071L200.824 158.523L205.694 160.222C206.84 160.505 208.272 159.939 208.917 159.019L214.79 150.947L254.253 91.6162C254.396 91.4746 254.539 91.333 254.682 91.1914L251.245 89.2798L252.677 88.4302L255.041 89.7754C256.043 90.3418 256.759 91.4746 256.974 92.4658Z" fill="#004C98"/>
<path opacity="0.4" d="M216.294 151.868L210.421 159.939C209.776 160.859 208.344 161.426 207.198 161.143L202.113 159.939L202.184 159.868L202.399 159.514L205.694 160.293C206.84 160.576 208.272 160.01 208.917 159.089L214.718 151.089L216.294 151.868Z" fill="white"/>
<path opacity="0.1" d="M255.184 89.8464L252.82 88.5012L251.388 89.3508L254.826 91.3332C254.682 91.4748 254.467 91.5456 254.396 91.758L214.933 151.089L214.861 151.16L216.294 151.939L255.613 92.8908L255.828 92.6076C255.971 92.3952 256.115 92.2536 256.258 92.112C256.616 91.8996 256.903 92.0412 256.974 92.5368C256.759 91.4748 256.043 90.342 255.184 89.8464Z" fill="black"/>
<path d="M164.297 146.982L155.846 142.168V213.889C155.846 215.022 156.634 216.367 157.637 216.934L159.642 218.066C160.645 218.633 162.22 218.633 163.223 218.066L164.226 217.5V146.982H164.297Z" fill="#004C98"/>
<path opacity="0.15" d="M164.297 146.982L155.846 142.168V213.889C155.846 215.022 156.634 216.367 157.637 216.934L159.642 218.066C160.645 218.633 162.22 218.633 163.223 218.066L164.226 217.5V146.982H164.297Z" fill="black"/>
<path d="M256.974 92.9614V162.629C256.974 163.196 256.76 163.833 256.401 164.399C256.115 164.895 255.757 165.249 255.327 165.603H255.256C255.184 165.603 255.184 165.674 255.112 165.674L163.295 218.137C162.794 218.42 162.364 218.42 162.077 218.279C161.791 218.137 161.576 217.854 161.504 217.429C161.504 217.358 161.504 217.217 161.504 217.146V147.478C161.504 146.345 162.364 145.637 163.51 145.92L202.185 160.01L207.27 161.213C208.416 161.497 209.848 160.93 210.493 160.01L216.366 151.938L255.614 92.8906L255.828 92.6074C256.473 91.6162 256.974 91.8286 256.974 92.9614Z" fill="#004C98"/>
<path d="M255.184 165.674C255.255 165.674 255.255 165.603 255.327 165.603L255.399 165.532C255.828 165.249 256.187 164.824 256.473 164.399C256.831 163.833 257.046 163.196 257.046 162.629L216.294 151.868L243.51 172.329L255.184 165.674Z" fill="#004C98"/>
<path opacity="0.2" d="M255.184 165.674C255.255 165.674 255.255 165.603 255.327 165.603L255.399 165.532C255.828 165.249 256.187 164.824 256.473 164.399C256.831 163.833 257.046 163.196 257.046 162.629L216.294 151.868L243.51 172.329L255.184 165.674Z" fill="black"/>
<path d="M161.504 217.146C161.504 217.712 161.719 218.137 162.077 218.35C162.364 218.491 162.794 218.491 163.295 218.208L194.951 200.154L202.185 160.01L161.504 215.942V217.146Z" fill="#004C98"/>
<path opacity="0.15" d="M206.052 153.779L162.006 218.279C161.647 218.137 161.433 217.712 161.433 217.146V216.013L204.405 153L206.052 153.779Z" fill="black"/>
<path d="M256.473 164.399C256.186 164.895 255.828 165.249 255.399 165.532L255.327 165.603L163.295 218.137C162.793 218.42 162.364 218.42 162.077 218.279L206.124 153.779C207.914 150.876 211.638 149.814 214.79 151.16L256.473 164.399Z" fill="#004C98"/>
<path opacity="0.15" d="M156.204 135.725L157.637 136.575C157.422 137.283 157.279 137.92 157.279 138.486C157.279 140.398 157.279 143.018 157.279 143.018L155.846 142.168C155.846 142.168 155.846 139.619 155.846 137.637C155.846 137.141 155.989 136.433 156.204 135.725Z" fill="black"/>
<path d="M163.868 145.142L162.435 145.92L160.931 145.071L157.279 143.018L158.711 142.239L163.868 145.142Z" fill="#004C98"/>
<path opacity="0.1" d="M163.939 145.142L158.711 142.239L157.279 143.088L160.931 145.142L162.435 145.991C162.507 145.92 162.65 145.92 162.722 145.92C162.937 145.85 163.223 145.85 163.51 145.92L166.446 146.982L200.179 159.231L200.681 158.452L163.939 145.142Z" fill="black"/>
<path d="M84.7987 24.5679L79.3555 27.6831C79.3555 27.4707 79.4271 27.1875 79.4271 26.9751V25.4175C79.4271 22.6563 77.4218 21.5235 74.9867 22.8687C73.984 23.4351 73.1245 24.3555 72.3367 25.3467C71.907 21.8775 69.1854 20.5322 65.8193 22.4439C62.1666 24.4971 59.2302 29.5947 59.2302 33.772V36.1084C59.2302 37.1704 59.445 38.0908 59.8031 38.7988L55.291 41.4185C53.9303 42.1973 52.856 44.0381 52.856 45.5957C52.856 47.1533 53.9303 47.7905 55.291 47.0117L84.8703 30.1612C86.2311 29.3823 87.3054 27.5415 87.3054 25.9839C87.2338 24.4263 86.1594 23.7891 84.7987 24.5679Z" fill="#F0F0F0"/>
<path d="M58.3705 6.72608L51.7098 10.6201C51.7098 10.3369 51.7815 10.0537 51.7815 9.77051V7.78809C51.7815 4.38966 49.3464 2.97364 46.3383 4.67286C45.1208 5.38087 43.9748 6.44288 43.1154 7.71729C42.6141 3.39844 39.1763 1.84083 35.0939 4.17725C30.5818 6.72608 27.0008 12.9565 27.0008 18.0542V20.957C27.0008 22.3023 27.2157 23.4351 27.717 24.2847L22.1306 27.4707C20.4833 28.3911 19.1226 30.7275 19.1226 32.6392C19.1226 34.5508 20.4833 35.3296 22.1306 34.3384L58.5138 13.5938C60.1611 12.6733 61.5218 10.3369 61.5218 8.4253C61.4502 6.58448 60.0894 5.80567 58.3705 6.72608Z" fill="#F0F0F0"/>
<path d="M271.012 68.8892L296.294 52.8882L307.467 56.4282L271.012 68.8892Z" fill="#004C98"/>
<path d="M271.012 68.8892L292.856 50.835L287.986 45.3125L271.012 68.8892Z" fill="#004C98"/>
<path d="M292.856 50.835V55.0122L271.012 68.8892L292.856 50.835Z" fill="#004C98"/>
<path opacity="0.25" d="M292.856 50.835V55.0122L271.012 68.8892L292.856 50.835Z" fill="black"/>
<path d="M296.509 50.481C296.365 50.481 296.222 50.4102 296.079 50.3394C295.864 50.1269 295.864 49.7729 296.079 49.5605C296.867 48.8525 297.511 48.1445 298.156 47.2949C298.371 47.0825 298.657 47.0117 298.944 47.2241C299.159 47.4365 299.23 47.7197 299.015 48.0029C298.371 48.8525 297.655 49.6313 296.795 50.3394C296.795 50.481 296.652 50.481 296.509 50.481ZM300.591 45.1709C300.519 45.1709 300.448 45.1709 300.376 45.1001C300.09 44.9585 300.018 44.6753 300.161 44.3921C300.806 43.1885 301.236 41.8433 301.594 40.498C301.665 40.2148 301.952 40.0024 302.238 40.0732C302.525 40.144 302.74 40.4272 302.668 40.7104C302.31 42.1265 301.808 43.5425 301.164 44.8169C300.949 45.1001 300.734 45.1709 300.591 45.1709ZM302.525 37.7368C302.238 37.7368 301.952 37.4536 301.952 37.1704C301.952 36.8872 301.952 36.604 301.952 36.3208C301.952 35.2588 301.88 34.126 301.665 33.064C301.594 32.7808 301.808 32.4976 302.095 32.4268C302.381 32.356 302.668 32.5684 302.74 32.8516C302.954 33.9844 303.026 35.1172 303.026 36.3208C303.026 36.604 303.026 36.958 303.026 37.2412C303.026 37.5244 302.811 37.7368 302.525 37.7368ZM301.379 30.0903C301.164 30.0903 300.949 29.9487 300.877 29.7363C300.448 28.4619 299.875 27.1875 299.159 25.9839C299.015 25.7007 299.087 25.4175 299.373 25.2759C299.66 25.1343 299.946 25.2051 300.09 25.4883C300.806 26.7627 301.45 28.1079 301.88 29.4531C301.952 29.7363 301.808 30.0195 301.522 30.1611C301.45 30.0903 301.45 30.0903 301.379 30.0903ZM297.583 23.2935C297.44 23.2935 297.296 23.2227 297.153 23.0811C296.294 22.019 295.363 20.957 294.36 19.9658C294.145 19.7534 294.145 19.3994 294.36 19.187C294.575 18.9746 294.933 18.9746 295.148 19.187C296.222 20.1782 297.225 21.311 298.084 22.373C298.299 22.5854 298.227 22.9395 298.013 23.1519C297.798 23.2227 297.726 23.2935 297.583 23.2935ZM291.997 17.8418C291.853 17.8418 291.782 17.8418 291.638 17.7002C290.564 16.8506 289.347 16.0718 288.129 15.3638C287.843 15.2222 287.771 14.8682 287.914 14.6558C288.057 14.3726 288.415 14.3018 288.63 14.4434C289.92 15.1514 291.137 16.001 292.283 16.8506C292.498 16.9922 292.569 17.3462 292.355 17.6294C292.283 17.771 292.14 17.8418 291.997 17.8418ZM235.703 15.7886C235.488 15.7886 235.345 15.7178 235.201 15.5054C235.058 15.2222 235.13 14.939 235.416 14.7974C236.634 14.0894 237.923 13.4521 239.284 12.8149C239.57 12.6733 239.857 12.8149 240 13.0981C240.143 13.3813 240 13.6646 239.714 13.8062C238.424 14.3726 237.135 15.0806 235.918 15.7886C235.918 15.7178 235.774 15.7886 235.703 15.7886ZM285.264 13.8062C285.193 13.8062 285.121 13.8062 285.049 13.7354C283.76 13.0981 282.471 12.5317 281.182 12.0361C280.895 11.9653 280.752 11.6113 280.895 11.3281C280.967 11.0449 281.325 10.9033 281.612 11.0449C282.972 11.5405 284.261 12.1069 285.622 12.7441C285.909 12.8857 285.98 13.1689 285.837 13.4521C285.622 13.7354 285.479 13.8062 285.264 13.8062ZM242.793 12.3901C242.578 12.3901 242.364 12.2485 242.292 12.0361C242.149 11.7529 242.292 11.4697 242.578 11.3281C243.939 10.8325 245.3 10.3369 246.661 9.91211C246.947 9.84131 247.234 9.98291 247.305 10.2661C247.377 10.5493 247.234 10.8325 246.947 10.9033C245.586 11.3281 244.226 11.7529 242.937 12.2485C242.937 12.3901 242.865 12.3901 242.793 12.3901ZM277.887 10.9741C277.816 10.9741 277.816 10.9741 277.744 10.9741C276.383 10.5493 275.022 10.1953 273.662 9.91211C273.375 9.84131 273.16 9.55811 273.232 9.2749C273.304 8.9917 273.59 8.7793 273.877 8.8501C275.309 9.1333 276.67 9.4873 278.102 9.91211C278.389 9.98291 278.532 10.2661 278.46 10.5493C278.389 10.8325 278.174 10.9741 277.887 10.9741ZM250.313 10.1245C250.099 10.1245 249.812 9.98291 249.812 9.69971C249.74 9.4165 249.955 9.1333 250.242 9.0625C251.674 8.7085 253.107 8.49609 254.539 8.28369C254.825 8.21289 255.112 8.42529 255.184 8.7085C255.255 8.9917 255.04 9.2749 254.754 9.3457C253.321 9.5581 251.961 9.84131 250.6 10.1245C250.385 10.1245 250.385 10.1245 250.313 10.1245ZM270.224 9.2749H270.152C268.791 9.0625 267.359 8.9209 265.927 8.8501C265.64 8.8501 265.425 8.56689 265.425 8.28369C265.425 8.00049 265.712 7.78809 265.998 7.78809C267.431 7.85889 268.863 8.00049 270.296 8.21289C270.582 8.28369 270.797 8.49609 270.725 8.8501C270.725 9.1333 270.51 9.2749 270.224 9.2749ZM258.12 8.9209C257.834 8.9209 257.619 8.7085 257.619 8.42529C257.619 8.14209 257.834 7.85889 258.12 7.85889C259.552 7.71729 260.985 7.71729 262.489 7.64648C262.775 7.64648 262.99 7.85889 263.062 8.14209C263.062 8.42529 262.847 8.7085 262.561 8.7085C260.985 8.7793 259.552 8.7793 258.12 8.9209Z" fill="#E0E0E0"/>
</svg>
